<?xml version="1.0" encoding="UTF-8"?>
<svg width="120px" height="60px" viewBox="0 0 255 130" version="1.1" xmlns="http://www.w3.org/2000/svg" xmlns:xlink="http://www.w3.org/1999/xlink">
    <!-- Generator: Sketch 57.1 (83088) - https://sketch.com -->
    <title>ancestry</title>
    <desc>Created with Sketch.</desc>
    <g id="customers.mapbox.com-copy" stroke="none" stroke-width="1" fill="none" fill-rule="evenodd">
        <g id="ancestry" fill-rule="nonzero">
            <rect id="Rectangle-Copy-41" fill="#5BB041" x="0" y="0" width="255" height="130"></rect>
            <g id="5d5d64f6267fe7726f8172c7_ancestry-logo" transform="translate(28.000000, 47.000000)" fill="#FFFFFF">
                <path d="M56.8115966,15.1437591 C54.6609567,15.4124791 53.3167168,16.039759 52.4208769,16.936159 C51.7035969,17.6528789 51.3455969,18.5487989 51.3455969,19.4449588 C51.3455969,21.0582387 52.5103169,22.2229587 53.9440768,22.2229587 C54.8399967,22.2229587 55.7358367,21.8640787 56.1842367,21.3267187 C56.3632766,21.1475987 56.5426366,20.7891988 56.5426366,20.4307988 L56.8115966,15.1437591 Z M60.4854364,24.7317585 C58.6932765,24.7317585 57.0795966,23.5667986 56.6320766,21.7751187 C55.7358367,23.3878386 54.0335968,24.7317585 51.7934369,24.7317585 C49.2843971,24.7317585 47.1337572,22.7604786 47.1337572,20.2512788 C47.1337572,16.756559 50.449197,14.2479192 56.7215966,14.1581592 L56.7215966,13.2621592 C56.8115166,10.7533594 55.3773567,9.22959945 52.8683168,9.22959945 C51.076157,9.22959945 49.1949571,10.3948794 47.9401571,11.9178393 C47.8506371,12.0075993 47.3131972,11.4700793 47.3131972,11.3802393 C48.9259171,8.15471951 51.8827969,6.36231162 54.9293567,6.36231162 C58.4237565,6.36231162 60.9331164,8.87159947 60.8432764,13.0828792 L60.5752764,20.0723188 C60.5752764,21.6854387 61.2916763,22.4019187 62.0979963,22.4019187 C62.9939162,22.4019187 63.6212762,21.6850387 63.9796762,20.6992788 C63.9796762,20.6096788 64.5170362,20.8783188 64.5170362,20.9677588 C64.5170362,23.3878386 62.7248763,24.7317585 60.4847164,24.7317585 L60.4854364,24.7317585 L60.4854364,24.7317585 Z M82.7975951,24.1048786 L78.0481553,24.1048786 C77.9583154,24.1048786 77.9583154,23.2088786 78.0481553,23.2088786 C80.0191952,22.9394386 80.2879952,22.7605586 80.2879952,18.9075189 L80.2879952,13.5311192 C80.2879952,11.1115993 78.8545553,9.40911944 76.7934354,9.40911944 C75.3601555,9.40911944 74.0159156,10.1259994 73.3884756,11.0219993 C72.9400757,11.5598393 72.6715957,12.5455193 72.6715957,13.7999992 L72.6715957,18.9075189 C72.6715957,22.7604786 73.1191156,22.9393586 75.0911155,23.2088786 C75.0911155,23.2088786 75.1806355,24.1048786 75.0911155,24.1048786 L65.9507961,24.1048786 C65.8612761,24.1048786 65.8612761,23.2088786 65.8612761,23.2088786 C68.0114359,22.8499186 68.2807959,22.7605586 68.2807959,18.9075189 L68.2807959,12.3661593 C68.2807959,8.4233595 67.832476,8.24407951 65.5023961,7.88583953 C65.3234361,7.88583953 65.4128761,6.98956758 65.5023961,6.98956758 L72.3125557,6.98956758 L72.3125557,10.9326393 L72.4024757,10.9326393 C73.9257556,8.06471952 76.2557555,6.36244762 79.1227953,6.36244762 C82.3487951,6.36244762 84.8575949,8.87143947 84.8575949,12.9935192 L84.8575949,18.8181589 C84.8575949,22.6709586 85.2159949,22.8499186 87.3663948,23.1193586 C87.5455948,23.1193586 87.4559948,24.0151986 87.3663948,24.0151986 C86.0231949,24.1048786 84.051195,24.1048786 82.7967951,24.1048786 L82.7975951,24.1048786 Z M97.2239942,24.7315985 C91.8479945,24.7315985 88.3527947,20.5203188 88.3527947,15.6813591 C88.3527947,10.4840794 91.8479945,6.36205562 97.5823942,6.36205562 C100.271194,6.36205562 101.615194,7.25819157 102.421594,7.25819157 C102.779994,7.25819157 103.138394,6.98943958 103.317594,6.54156761 C103.317594,6.45194362 104.392794,6.45194362 104.392794,6.54156761 L104.392794,12.9931192 C104.392794,13.0828792 103.317594,13.0828792 103.317594,12.9931192 C101.883994,10.0359994 99.912794,7.52732755 97.5831942,7.52732755 C94.7151944,7.52732755 93.0127945,10.5738394 93.0127945,14.7849591 C93.0127945,19.2654389 95.3423943,22.2227987 98.5687941,22.2227987 C100.718394,22.2227987 103.138394,20.6991988 104.123994,18.9969589 C104.213594,18.8170389 104.930394,19.1757589 104.930394,19.3558388 C103.766394,22.4018387 100.718394,24.7315985 97.2239942,24.7315985 L97.2239942,24.7315985 Z M118.998393,13.3515992 L118.998393,12.0971193 C118.998393,9.31911944 117.654393,7.70631954 115.951993,7.70631954 C113.800793,7.70631954 112.188793,10.0359994 111.829593,13.3515192 L118.998393,13.3515192 L118.998393,13.3515992 Z M111.829593,15.4123991 C111.829593,19.2656789 113.980793,22.2227187 117.654393,22.2227187 C119.804793,22.2227187 121.955193,20.7889588 123.120793,18.9961589 C123.120793,18.9075189 123.836793,19.1760789 123.836793,19.3551988 C122.851993,22.4020787 119.625593,24.7311985 116.041593,24.7311985 C110.395993,24.7311985 107.080794,20.6098388 107.080794,15.6813591 C107.080794,10.7529594 110.575993,6.36257562 116.489593,6.36257562 C120.970393,6.36257562 123.927193,9.31935944 124.195993,13.3517592 L124.195993,14.6062391 L112.009593,14.6062391 C111.830393,14.7852791 111.830393,15.2333591 111.830393,15.4128791 L111.829593,15.4123991 Z M133.156792,24.7315985 C130.378392,24.7315985 127.959192,24.0151186 127.152792,23.4771986 C127.063192,23.3876786 126.795192,21.0582387 126.795192,18.7281589 C126.795192,18.6385589 127.869592,18.5487989 127.869592,18.7281589 C129.303192,21.8645587 131.364792,23.6563186 133.604792,23.6563186 C135.486392,23.6563186 136.830392,22.6709586 136.830392,21.1475987 C136.830392,19.3554388 134.679992,18.5487989 132.529592,17.563279 C129.930392,16.577679 126.974392,15.2333591 126.974392,11.9181593 C126.974392,9.31911944 129.214392,6.6310636 133.425592,6.6310636 C135.218392,6.6310636 136.382392,7.34768756 137.189592,7.34768756 C137.547992,7.34768756 137.905592,7.07919958 138.174392,6.6310636 C138.174392,6.54156761 139.250392,6.54156761 139.250392,6.6310636 L139.250392,12.5455193 C139.250392,12.6350392 138.174392,12.6350392 138.174392,12.5455193 C136.740792,9.85695941 135.038392,7.97533552 132.976792,7.97533552 C131.095992,7.97533552 130.199192,9.22983945 130.199192,10.2158394 C130.199192,12.0075993 132.259992,12.7244792 134.410392,13.6207992 C137.009592,14.6957591 140.055992,16.040319 140.055992,19.4449588 C140.055992,22.3124787 137.367992,24.7310385 133.155992,24.7310385 L133.156792,24.7315985 Z M142.027992,8.87119947 C141.759192,8.87119947 141.669592,8.15407951 141.938392,7.97519952 C143.819991,6.27255963 146.955991,3.4051598 148.658391,1.6131519 C148.748791,1.52339191 149.375991,1.6131519 149.375991,1.79227189 L149.375991,7.07893558 L155.468791,7.07893558 C155.647991,7.07893558 155.647991,8.78135948 155.468791,8.78135948 L149.375991,8.78135948 L149.375991,18.7277589 C149.375991,20.9677588 150.719191,21.9532787 152.153591,21.9532787 C153.228791,21.9532787 154.393591,21.0579187 154.931191,19.9825588 C154.931191,19.8930388 155.647991,20.2511988 155.647991,20.3409588 C154.931991,22.7605586 152.601591,24.6418385 150.003191,24.6418385 C147.224791,24.6418385 144.984791,22.8500786 144.984791,19.3552788 L144.984791,8.87095947 L142.027992,8.87095947 L142.027992,8.87119947 Z M170.34399,11.7388793 C169.80639,11.7388793 168.46159,10.1259994 167.47679,10.1259994 C167.02799,10.1259994 166.49039,10.3947194 166.04239,10.8428794 C165.32559,11.5595193 164.69839,13.2623992 164.69839,14.6959191 L164.69839,18.9971989 C164.69839,22.9394386 165.32559,23.0289586 167.38719,23.2979186 C167.38719,23.2979186 167.47679,24.1938386 167.38719,24.1938386 L157.888791,24.1938386 C157.799191,24.1938386 157.799191,23.2984786 157.888791,23.2984786 C160.03919,22.9394386 160.30879,22.8500786 160.30879,18.9971989 L160.30879,12.4553593 C160.30879,8.60231949 159.86079,8.3335995 157.530391,7.97519952 C157.351191,7.97519952 157.440791,7.07906358 157.530391,7.07906358 L164.42959,7.07906358 L164.42959,11.5591993 L164.60879,11.5591993 C164.78879,11.0215993 165.14639,10.3942394 165.41519,9.76711942 C166.66959,7.70593554 168.19359,6.45142362 169.80639,6.45142362 C171.32959,6.45142362 172.58479,7.61643955 172.58479,8.87095947 C172.67279,10.3047194 170.79199,11.7382393 170.34399,11.7382393 L170.34399,11.7388793 Z M188.891989,14.0684792 L183.067989,29.0328783 C181.007189,34.319918 179.124789,35.3951979 176.615989,35.3951979 C175.18239,35.3951979 173.56959,34.6777579 173.56959,34.230478 C173.47999,33.513598 174.46559,30.9146382 175.00239,30.9146382 C175.18239,30.9146382 177.332789,31.8999181 178.407989,31.8999181 C179.931189,31.8999181 180.916789,30.9146382 181.723189,28.7639983 L182.799189,25.8964785 C182.440789,24.4627185 178.139189,15.0543991 177.601589,13.7995992 C176.526389,11.2906393 175.80879,9.31919944 175.09279,8.60231949 C174.64479,8.15415951 174.19679,7.97519952 172.94159,7.79581554 C172.85279,7.79581554 172.85279,6.89929559 172.94159,6.89929559 C174.10719,6.89929559 176.526389,6.98918358 177.870389,6.98918358 C179.215189,6.98918358 181.543989,6.89929559 182.709589,6.89929559 C182.799189,6.89929559 182.799189,7.79555954 182.709589,7.79555954 C180.021589,8.15383951 180.289589,9.04983946 181.723989,12.6344792 L184.859989,20.2511988 L187.368789,13.7095992 C188.264789,11.4695993 188.713589,10.1254394 188.713589,9.31895944 C188.713589,8.3331995 188.085589,7.97467952 186.203989,7.88518353 C186.114389,7.88518353 186.114389,6.89929559 186.203989,6.89929559 C187.458389,6.89929559 189.071989,6.98891958 190.147189,6.98891958 C190.953589,6.98891958 191.759989,6.89929559 193.283188,6.89929559 C193.372788,6.89929559 193.462388,7.88531153 193.283188,7.88531153 C192.297589,7.97455152 191.849589,8.24327951 191.311989,8.78095948 C190.595189,9.49783943 190.056789,10.9315993 188.891989,14.0677592 L188.891989,14.0684792 Z" id="Shape"></path>
                <path d="M26.7926384,5.91418365 C23.6565586,2.50902385 20.5205588,3.04691182 19.9827988,3.13640781 C20.2516788,3.22590381 20.5207188,9.14007946 23.8360786,12.2762393 C26.0762384,14.3368791 30.6463182,13.6199992 30.6463182,13.6199992 C30.6463182,13.6199992 29.8395182,9.22943945 26.7930384,5.91404765 L26.7926384,5.91418365 Z M30.5567982,17.473679 C29.5710382,17.473679 25.5387185,17.8323189 22.8507186,21.1476787 C20.0727188,24.6426385 20.1621588,27.4201584 19.5347988,28.0471183 C20.0727188,28.2270383 25.7177585,28.7639983 28.1372783,25.0902385 C30.4668782,21.6846387 30.5567982,18.0110389 30.5567982,17.473679 Z M6.00393564,15.0538391 C6.6311916,15.1437591 8.78183948,17.9216789 12.6351192,18.2803189 C16.846399,18.7281589 18.2801589,16.577759 18.3700789,16.577759 C18.3700789,16.308879 14.9651991,12.6350392 11.2013593,12.6350392 C8.60231949,12.7242392 6.00393564,15.0541591 6.00393564,15.0541591 L6.00393564,15.0538391 Z M21.3265587,16.935999 C21.2370387,17.025519 17.7426389,21.6851987 9.49871943,20.4309588 C2.86791983,19.3551988 0.448393573,15.6813591 0,15.5919191 C0.537889568,14.8750391 5.55593567,10.8427194 11.3803193,10.9322393 C17.115279,11.1115993 21.3265587,14.3373591 21.3265587,14.3373591 L25.0004785,14.3373591 C22.0434387,13.4413592 18.4595189,11.8286393 16.846399,8.24423951 C15.4126391,4.92880771 15.6816791,2.95741582 15.0542391,0.179643989 C15.0542391,0.179643989 21.6850387,-0.358245579 26.7926384,2.95741582 C31.4526381,6.00380764 34.050798,14.0686392 34.140718,14.3372791 L37.0076778,14.3372791 L36.3807978,0 L39.9651176,0.0894959947 C39.3382377,3.85303177 40.1444776,30.7355182 39.9651176,30.7355182 C39.6067176,30.8250382 36.5598378,31.0035982 36.2913578,30.2871182 C36.2913578,30.2871182 37.0082378,17.115039 37.0980778,16.846159 L34.319678,16.846159 C34.319678,17.025279 34.050798,24.4627185 28.4057583,28.4055183 C22.7603186,32.3483981 14.6062391,31.1830381 14.6062391,31.1830381 C15.5919991,29.6599182 14.6062391,28.0471183 17.473279,23.6564786 C20.7890388,18.6383189 25.1798385,16.846159 25.0903185,16.846159 C24.8218385,16.935759 21.4164787,16.935759 21.3265587,16.935759 L21.3265587,16.935999 Z" id="Shape"></path>
                <path d="M196.763188,8.55375949 C197.023988,8.55375949 197.205588,8.4587995 197.205588,8.23343951 C197.205588,8.03447952 197.100788,7.90475153 196.789588,7.90475153 L196.511988,7.90475153 L196.511988,8.55399949 L196.763188,8.55399949 L196.763188,8.55375949 L196.763188,8.55375949 Z M196.235188,7.66191954 L196.832788,7.66191954 C197.170388,7.66191954 197.499188,7.78346354 197.499188,8.21631951 C197.499188,8.4324795 197.351988,8.64079948 197.152788,8.70119948 L197.577588,9.44559944 L197.256788,9.44559944 L196.919188,8.78759948 L196.511988,8.78759948 L196.511988,9.44559944 L196.235188,9.44559944 L196.235188,7.66191954 Z M198.131188,8.58839949 C198.131188,7.75702354 197.551188,7.14239957 196.823988,7.14239957 C196.096788,7.14239957 195.516788,7.75702354 195.516788,8.58839949 C195.516788,9.41079944 196.096788,10.0082394 196.823988,10.0082394 C197.551188,10.0082394 198.131988,9.41103944 198.131988,8.58839949 L198.131188,8.58839949 Z M195.247988,8.58839949 C195.247988,7.57529555 195.967188,6.90009559 196.823988,6.90009559 C197.689588,6.90009559 198.399988,7.57555155 198.399988,8.58863949 C198.399988,9.59303943 197.689588,10.2597594 196.823988,10.2597594 C195.967188,10.2597594 195.247988,9.59303943 195.247988,8.58863949 L195.247988,8.58839949 Z" id="Shape"></path>
            </g>
        </g>
    </g>
</svg>