<?xml version="1.0" encoding="UTF-8"?>
<svg width="36px" height="36px" viewBox="0 0 36 36" version="1.1" xmlns="http://www.w3.org/2000/svg" xmlns:xlink="http://www.w3.org/1999/xlink">
    <!-- Generator: Sketch 53.1 (72631) - https://sketchapp.com -->
    <title>ar-icn</title>
    <desc>Created with Sketch.</desc>
    <g id="customers.mapbox.com" stroke="none" stroke-width="1" fill="none" fill-rule="evenodd">
        <g id="ar-icn" fill="#017AFC">
            <rect id="Rectangle-Copy-38" opacity="0.0481305804" x="0" y="0" width="36" height="36"></rect>
            <g id="noun_cube_2335552" transform="translate(9.000000, 8.000000)">
                <g id="Group" transform="translate(0.000000, 0.148330)">
                    <path d="M8.9296875,0.0853186047 C8.8275642,0.0943919685 8.72769059,0.121428014 8.634375,0.165260465 L0.534374999,3.8861907 C0.209339837,4.03557867 -8.37793653e-05,4.36881087 -6.19211682e-10,4.7364814 L-6.19211682e-10,14.9690465 C-8.82259703e-05,15.3367213 0.209336108,15.6699591 0.534374999,15.8193488 L8.634375,19.5402791 C8.86714353,19.6472293 9.13285647,19.6472293 9.365625,19.5402791 L17.465625,15.8193488 C17.7906639,15.6699591 18.0000882,15.3367213 18,14.9690465 L18,4.7364814 C18.0000838,4.36881087 17.7906602,4.03557867 17.465625,3.8861907 L9.365625,0.165260465 C9.22901871,0.101513214 9.07917314,0.0740346554 8.9296875,0.0853186047 L8.9296875,0.0853186047 Z M9,2.03299302 L14.885145,4.7364814 L9,7.43997907 L3.114855,4.7364814 L9,2.03299302 Z M1.8,6.16816744 L8.1,9.06060698 L8.1,17.2583023 L1.8,14.3658605 L1.8,6.16816744 L1.8,6.16816744 Z M16.2,6.16816744 L16.2,14.3658605 L9.9,17.2583023 L9.9,9.06060698 L16.2,6.16816744 L16.2,6.16816744 Z" id="Shape"></path>
                </g>
            </g>
        </g>
    </g>
</svg>