<?xml version="1.0" encoding="UTF-8"?>
<svg width="36px" height="36px" viewBox="0 0 36 36" version="1.1" xmlns="http://www.w3.org/2000/svg" xmlns:xlink="http://www.w3.org/1999/xlink">
    <!-- Generator: Sketch 53.1 (72631) - https://sketchapp.com -->
    <title>atlas-icn</title>
    <desc>Created with Sketch.</desc>
    <g id="customers.mapbox.com" stroke="none" stroke-width="1" fill="none" fill-rule="evenodd">
        <g id="atlas-icn" fill="#017AFC">
            <rect id="Rectangle-Copy-4" opacity="0.0481305804" x="0" y="0" width="36" height="36"></rect>
            <path d="M12,18 L25,18 C25.5522847,18 26,18.4477153 26,19 L26,23 C26,23.5522847 25.5522847,24 25,24 L12,24 C11.4477153,24 11,23.5522847 11,23 L11,19 C11,18.4477153 11.4477153,18 12,18 Z M14,22 C14.5522847,22 15,21.5522847 15,21 C15,20.4477153 14.5522847,20 14,20 C13.4477153,20 13,20.4477153 13,21 C13,21.5522847 13.4477153,22 14,22 Z" id="Combined-Shape"></path>
            <path d="M15.7781219,10 L21.0667792,10 C21.4114137,10 21.7317619,10.1774607 21.9145456,10.4696302 L25.0425878,15.4696302 C25.3355029,15.9378387 25.1933996,16.5548512 24.7251912,16.8477664 C24.566177,16.947247 24.3823898,17 24.1948214,17 L12.768965,17 C12.2166803,17 11.768965,16.5522847 11.768965,16 C11.768965,15.8182992 11.8184713,15.6400321 11.9121652,15.4843509 L14.921322,10.4843509 C15.1022031,10.1837999 15.4273387,10 15.7781219,10 Z" id="Rectangle-Copy-8"></path>
        </g>
    </g>
</svg>