<?xml version="1.0" encoding="UTF-8"?>
<svg width="36px" height="36px" viewBox="0 0 36 36" version="1.1" xmlns="http://www.w3.org/2000/svg" xmlns:xlink="http://www.w3.org/1999/xlink">
    <!-- Generator: Sketch 53.1 (72631) - https://sketchapp.com -->
    <title>auto-icn</title>
    <desc>Created with Sketch.</desc>
    <g id="customers.mapbox.com" stroke="none" stroke-width="1" fill="none" fill-rule="evenodd">
        <g id="auto-icn" fill="#017AFC">
            <rect id="Rectangle-Copy-39" opacity="0.0481305804" x="0" y="0" width="36" height="36"></rect>
            <g id="noun_Steering-Wheel_776599" transform="translate(7.000000, 7.000000)">
                <path d="M11,22 C17.0751322,22 22,17.0751322 22,11 C22,4.92486775 17.0751322,3.7385061e-16 11,0 C4.92486775,-3.7385061e-16 7.47701221e-16,4.92486775 0,11 C0.0074215469,17.0720555 4.92794451,21.9925785 11,22 Z M11,14.1086531 C9.34314575,14.1086531 8,12.7655073 8,11.1086531 C8,9.45179881 9.34314575,8.10865306 11,8.10865306 C12.6568542,8.10865306 14,9.45179881 14,11.1086531 C14,12.7655073 12.6568542,14.1086531 11,14.1086531 Z M11,12.1086531 C10.4477153,12.1086531 10,11.6609378 10,11.1086531 C10,10.5563683 10.4477153,10.1086531 11,10.1086531 C11.5522847,10.1086531 12,10.5563683 12,11.1086531 C12,11.6609378 11.5522847,12.1086531 11,12.1086531 Z M19.6428571,13.6792857 C18.7627127,16.5105214 16.5587655,18.7356604 13.7360816,19.6428571 C13.566861,19.6985723 13.3810982,19.6681812 13.2384549,19.5614447 C13.0958116,19.4547082 13.0142477,19.2850651 13.0199592,19.107 L13.0199592,18.8600612 C13.1383793,15.5729451 15.8399794,12.9707166 19.1292245,12.9755102 L19.1292245,12.9755102 C19.3012145,12.9761523 19.4626437,13.0585662 19.5640358,13.1974929 C19.6654279,13.3364195 19.6946913,13.5152913 19.6428571,13.6792857 L19.6428571,13.6792857 Z M2.89053061,6.96255102 C4.42113754,3.88376322 7.56296596,1.93704052 11.0012347,1.93704052 C14.4395034,1.93704052 17.5813319,3.88376322 19.1119388,6.96255102 C19.1997555,7.13978558 19.1899354,7.34978288 19.0859622,7.51804881 C18.9819889,7.68631473 18.7985716,7.7890445 18.6007755,7.78979592 C18.4939737,7.78920767 18.389522,7.75838585 18.2995102,7.70089796 C16.6203265,6.64646939 13.9756122,5.97232653 11,5.97232653 C8.02438776,5.97232653 5.37967347,6.65387755 3.7004898,7.70089796 C3.61047804,7.75838585 3.50602631,7.78920767 3.39922449,7.78979592 L3.39922449,7.78979592 C3.20186834,7.78819795 3.01923093,7.68512848 2.91584969,7.51700851 C2.81246846,7.34888854 2.80290195,7.13939338 2.89053061,6.96255102 Z M2.86583673,12.9755102 L2.86583673,12.9755102 C6.15033006,12.97599 8.84564346,15.575276 8.96522449,18.8575918 L8.96522449,19.1045306 C8.97065188,19.2806482 8.89071251,19.4485504 8.750579,19.5553655 C8.61044549,19.6621805 8.42736151,19.6947646 8.25897959,19.6428571 C5.43818732,18.734297 3.23630193,16.5093793 2.35714286,13.6792857 C2.30555495,13.5161153 2.33424229,13.3381562 2.4344913,13.1994622 C2.53474031,13.0607682 2.69471963,12.9777079 2.86583673,12.9755102 Z" id="Shape"></path>
            </g>
        </g>
    </g>
</svg>