<?xml version="1.0" encoding="UTF-8"?>
<svg width="120px" height="60px" viewBox="0 0 255 130" version="1.1" xmlns="http://www.w3.org/2000/svg" xmlns:xlink="http://www.w3.org/1999/xlink">
    <!-- Generator: Sketch 57.1 (83088) - https://sketch.com -->
    <title>lonely</title>
    <desc>Created with Sketch.</desc>
    <g id="customers.mapbox.com-copy" stroke="none" stroke-width="1" fill="none" fill-rule="evenodd">
        <g id="lonely" fill-rule="nonzero">
            <rect id="Rectangle-Copy-45" fill="#D0EAF9" x="0" y="0" width="255" height="130"></rect>
            <g id="5d526aead4a6303d5e398a17_Lonely_Planet" transform="translate(58.000000, 30.000000)" fill="#005AB0">
                <g id="g3189" transform="translate(69.500000, 35.000000) scale(-1, 1) rotate(-180.000000) translate(-69.500000, -35.000000) translate(0.000000, -0.000000)">
                    <path d="M101.28816,23.1 C96.6718679,9.834825 84.0390055,0.2454375 69.247507,0.2454375 C54.3762699,0.2454375 41.7604943,9.7337625 37.2153977,23.151975 L38.9411675,23.7554625 L40.6811762,24.353175 C44.8418192,12.4999875 56.0393879,4.1551125 69.2389635,4.1551125 C82.3958221,4.1551125 93.6474992,12.629925 97.8423157,24.4022625 L101.28816,23.1 Z M37.2153977,46.6244625 C41.8288416,60.135075 54.461704,69.8977125 69.2532026,69.8977125 C84.1329831,69.8977125 96.7430631,60.2303625 101.28816,46.5667125 L99.5623899,45.951675 L97.8223811,45.3453 C93.6588904,57.420825 82.4613216,65.9187375 69.2645938,65.9187375 C56.1020396,65.9187375 44.8503626,57.2851125 40.6612416,45.2962125 L37.2153977,46.6244625 Z M77.7766826,31.571925 C79.5252348,31.571925 80.951985,33.0185625 80.951985,34.7972625 C80.951985,36.5701875 79.5252348,38.016825 77.7766826,38.016825 C76.0224348,38.016825 74.5928367,36.5701875 74.5928367,34.7972625 C74.5928367,33.0185625 76.0224348,31.571925 77.7766826,31.571925 Z M96.3301314,31.571925 C98.0815314,31.571925 99.5082816,33.0185625 99.5082816,34.7972625 C99.5082816,36.5701875 98.0815314,38.016825 96.3301314,38.016825 C94.5730357,38.016825 93.1491333,36.5701875 93.1491333,34.7972625 C93.1491333,33.0185625 94.5730357,31.571925 96.3301314,31.571925 Z M138.537447,32.7817875 L138.759576,32.9839125 L138.945475,28.70175 C138.990248,27.6738 135.122929,26.1463125 132.972837,27.7344375 C130.819896,29.319675 130.771484,31.156125 130.771484,33.570075 L120.653233,33.570075 C121.741094,30.6565875 125.192634,30.9684375 126.155192,32.4352875 L130.352856,31.745175 C128.800803,26.8219875 124.651551,26.18385 120.67032,27.494775 C118.656922,28.49385 117.443757,29.7037125 116.535307,31.79715 L116.535307,26.9028375 L111.602909,26.9028375 C111.602909,29.908725 111.608605,33.32175 111.568735,36.3796125 C111.409258,38.3719875 108.259586,38.2074 108.259586,36.261225 L108.259586,26.9028375 L103.375601,26.83065 L101.954546,26.83065 L100.018039,26.83065 L100.015191,29.793225 C100.012343,30.971325 98.6881138,26.7267 97.1047343,26.83065 C93.6816728,26.57655 90.9193021,28.3696875 89.475465,31.4824125 L89.475465,26.9028375 L84.4519372,26.9028375 L84.4519372,31.4824125 C82.9938611,28.511175 79.1692592,26.593875 75.4215479,27.5554125 L74.866226,27.7921875 C74.866226,27.7921875 75.0228553,22.516725 75.0228553,21.153825 L70.0107187,21.153825 L70.0107187,34.644225 C70.1360221,41.008275 76.9109499,44.785125 82.0597811,40.9938375 C83.1476426,40.0929375 83.8254201,39.1862625 84.4519372,37.9157625 L84.4519372,48.5475375 L89.475465,48.5475375 L89.475465,37.9157625 C91.1044094,41.308575 94.2540816,42.9457875 97.9562279,42.3220875 C100.701512,41.5540125 102.301978,40.1853375 103.406926,37.5865875 C104.802351,41.7330375 108.675365,43.428 112.696466,41.9958 C114.724103,41.0284875 115.814812,39.7175625 116.535307,37.5865875 C118.369293,41.6521875 122.341981,43.410675 126.502624,41.9178375 C128.578674,40.9476375 129.900055,39.7175625 130.771484,37.5865875 L130.771484,45.49545 L135.626991,45.49545 L135.626991,42.3885 L138.699772,42.3885 L138.699772,37.832025 L135.626991,37.832025 C135.626991,36.2901 135.38208,34.7337375 135.854815,33.2842125 C136.319007,32.2735875 137.643237,32.045475 138.537447,32.7817875 L138.537447,32.7817875 Z M123.361495,42.405825 L123.540907,38.0688 L123.361495,42.405825 Z M120.619059,35.787675 L126.704818,35.787675 C125.745108,38.9437125 121.44777,38.813775 120.619059,35.787675 L120.619059,35.787675 Z M11.6791314,38.086125 L11.7303918,42.4260375 L11.6791314,38.086125 Z M57.118706,19.490625 C59.1292562,19.6956375 60.4079206,20.0536875 61.9428875,21.454125 C63.1076396,22.7737125 63.6629616,24.1481625 63.7370045,25.9210875 L63.7370045,42.4722375 L58.8017587,42.4722375 L58.8017587,33.0070125 C58.8017587,31.294725 56.329864,31.2802875 56.329864,33.0070125 L56.329864,42.4722375 L51.4031616,42.4722375 L51.4031616,48.5475375 L46.3824816,48.5475375 L46.3824816,37.5865875 C44.7677762,41.0920125 41.7177772,42.8967 37.8903275,42.3509625 C35.1421957,41.7330375 33.1886016,40.1853375 32.132066,37.5865875 C31.1808992,40.6704375 28.9339811,42.301875 25.8042435,42.4722375 C22.4837031,42.4722375 20.0118084,40.8263625 19.0150767,37.5865875 C17.3405675,41.3230125 13.9915489,43.1277 10.0017743,42.2123625 C7.60677038,41.45295 6.15723769,40.1680125 5.06937623,37.9157625 L5.06937623,48.5475375 L0.0458484257,48.5475375 L0.0458484257,26.9028375 L5.06937623,26.9028375 L5.06937623,31.7596125 C6.49612647,28.8605625 8.87973916,27.2608875 12.0721284,27.1973625 C15.4667118,27.3994875 17.6452826,29.0367 19.0150767,32.0859 L19.0150767,26.9028375 L23.8506494,26.9028375 L23.8506494,36.2439 C24.0386045,38.2795875 27.0942992,38.3431125 27.2794065,36.2439 L27.2794065,26.9028375 L32.132066,26.9028375 L32.132066,31.79715 C33.2484055,29.2879125 35.0026533,27.7748625 37.6311772,27.0934125 C43.3894387,26.536125 45.6733782,30.555525 45.704704,31.5632625 L41.5469089,32.2014 C39.4452289,30.5872875 37.0416816,31.4246625 36.2813177,33.570075 L46.3824816,33.570075 L46.3824816,26.9028375 L51.4031616,26.9028375 L51.4031616,30.3274125 C52.2347206,26.9346 56.3668855,25.7796 58.7134767,28.3234875 C58.7134767,27.575625 58.636586,26.697825 58.4087616,25.981725 C57.6540933,24.1481625 55.1394816,24.1481625 53.8380348,25.37535 L50.8763177,21.4974375 C52.7672601,19.987275 54.6752894,19.2567375 57.118706,19.490625 Z M11.8699343,31.6556625 C10.1185343,31.6556625 8.69747965,33.1023 8.69747965,34.881 C8.69747965,36.6568125 10.1185343,38.1063375 11.8699343,38.1063375 C13.6241821,38.1063375 15.0509323,36.6568125 15.0509323,34.881 C15.0509323,33.1023 13.6241821,31.6556625 11.8699343,31.6556625 Z M42.3471421,35.533575 L36.1731011,35.533575 C37.1328114,38.7156 41.3532582,38.77335 42.3471421,35.533575 Z" id="path3191"></path>
                </g>
            </g>
        </g>
    </g>
</svg>