<?xml version="1.0" encoding="UTF-8"?>
<svg width="120px" height="60px" viewBox="0 0 255 130" version="1.1" xmlns="http://www.w3.org/2000/svg" xmlns:xlink="http://www.w3.org/1999/xlink">
    <!-- Generator: Sketch 57.1 (83088) - https://sketch.com -->
    <title>shopify</title>
    <desc>Created with Sketch.</desc>
    <g id="customers.mapbox.com-copy" stroke="none" stroke-width="1" fill="none" fill-rule="evenodd">
        <g id="shopify" fill-rule="nonzero">
            <rect id="Rectangle-Copy-44" fill="#95BF47" x="0" y="0" width="255" height="130"></rect>
            <g id="5d96fdf3d858e3587df3efe7_Shopify-logo" transform="translate(34.000000, 38.000000)">
                <path d="M39.9895,10.0885 C39.9592,9.81506 39.7161,9.69351 39.5337,9.69351 C39.3514,9.69351 35.3707,9.38964 35.3707,9.38964 C35.3707,9.38964 32.6055,6.62441 32.2712,6.35092 C31.9673,6.04705 31.39,6.13821 31.1469,6.19899 C31.1165,6.19899 30.5391,6.38131 29.5971,6.68518 C28.6551,3.98072 27.0446,1.51936 24.1578,1.51936 L23.8843,1.51936 C23.0943,0.486195 22.0611,0 21.2103,0 C14.5251,0 11.304,8.35648 10.3013,12.6107 C7.68796,13.4311 5.83434,13.9781 5.62163,14.0693 C4.16305,14.5251 4.13266,14.5555 3.95034,15.9229 C3.7984,16.9561 0,46.3405 0,46.3405 L29.5667,51.8709 L45.6113229,48.4068 C45.6416,48.346 40.0199,10.362 39.9895,10.0885 Z M27.9562,7.1106 C27.2269,7.32331 26.3457,7.5968 25.4645,7.90067 L25.4645,7.3537 C25.4645,5.71279 25.2518,4.37575 24.8567,3.3122 C26.3761,3.49453 27.3181,5.16582 27.9562,7.1106 Z M23.0031,3.64646 C23.3981,4.67963 23.6716,6.13821 23.6716,8.14376 L23.6716,8.44764 C22.0307,8.96422 20.2986,9.4808 18.5058,10.0582 C19.5086,6.22937 21.423,4.34537 23.0031,3.64646 Z M21.0583,1.76245 C21.3622,1.76245 21.6661,1.884 21.9092,2.06633 C19.7517,3.0691 17.4726,5.59124 16.5306,10.6963 C15.1024,11.1521 13.735,11.5471 12.4284,11.9726 C13.5223,8.08299 16.2571,1.76245 21.0583,1.76245 L21.0583,1.76245 Z" id="Shape" fill="#E4EFD0"></path>
                <path d="M39.5338,9.63258 C39.3515,9.63258 35.3708,9.32871 35.3708,9.32871 C35.3708,9.32871 32.6055,6.56348 32.2713,6.28999 C32.1497,6.16844 31.9978,6.10767 31.8762,6.10767 L29.658,51.8708 L45.7024,48.4066 C45.7024,48.4066 40.0808,10.3619 40.0504,10.0884 C39.9288,9.81491 39.7161,9.69336 39.5338,9.63258 L39.5338,9.63258 Z" id="Path" fill="#FFFFFF"></path>
                <path d="M24.1578,18.5059 L22.213,24.3706 C22.213,24.3706 20.4506,23.4286 18.3538,23.4286 C15.224,23.4286 15.072,25.4038 15.072,25.89 C15.072,28.5641 22.0611,29.5972 22.0611,35.8874 C22.0611,40.8405 18.9312,44.0311 14.7074,44.0311 C9.60233,44.0311 7.0498,40.8709 7.0498,40.8709 L8.41723,36.3736 C8.41723,36.3736 11.0913,38.683 13.34,38.683 C14.8289,38.683 15.4367,37.5283 15.4367,36.6774 C15.4367,33.1829 9.72388,33.031 9.72388,27.2574 C9.72388,22.4258 13.188,17.7462 20.2075,17.7462 C22.8208,17.7158 24.1578,18.5059 24.1578,18.5059 L24.1578,18.5059 Z" id="Path" fill="#95BF47"></path>
                <path d="M64.3298,29.5362 C62.7192,28.6854 61.8988,27.9257 61.8988,26.9229 C61.8988,25.6467 63.0535,24.8262 64.8463,24.8262 C66.9431,24.8262 68.7967,25.6771 68.7967,25.6771 L70.2553,21.2102 C70.2553,21.2102 68.9182,20.177 64.9679,20.177 C59.4678,20.177 55.639,23.3373 55.639,27.7738 C55.639,30.2959 57.4319,32.2103 59.8021,33.5777 C61.7469,34.6413 62.4154,35.4314 62.4154,36.5861 C62.4154,37.7712 61.443,38.7436 59.6501,38.7436 C57.0065,38.7436 54.4843,37.3761 54.4843,37.3761 L52.9346,41.8431 C52.9346,41.8431 55.244,43.3928 59.1336,43.3928 C64.7856,43.3928 68.8878,40.5972 68.8878,35.5833 C68.8271,32.8484 66.7911,30.9644 64.3298,29.5362 L64.3298,29.5362 Z M86.8771,20.1162 C84.0814,20.1162 81.8936,21.4533 80.2223,23.4588 L80.1615,23.4284 L82.5925,10.7874 L76.3023,10.7874 L70.1641,42.9978 L76.4543,42.9978 L78.551,31.9976 C79.3714,27.8346 81.5289,25.2516 83.5345,25.2516 C84.9627,25.2516 85.5096,26.224 85.5096,27.5915 C85.5096,28.4423 85.4489,29.5362 85.2362,30.3871 L82.866,42.9978 L89.1561,42.9978 L91.6175,29.9921 C91.8909,28.6246 92.0733,26.9837 92.0733,25.8594 C92.0429,22.2433 90.1893,20.1162 86.8771,20.1162 L86.8771,20.1162 Z M106.294,20.1162 C98.6977,20.1162 93.6838,26.9533 93.6838,34.5805 C93.6838,39.4425 96.6921,43.3928 102.344,43.3928 C109.789,43.3928 114.803,36.738 114.803,28.9285 C114.833,24.4008 112.22,20.1162 106.294,20.1162 Z M103.195,38.5916 C101.037,38.5916 100.156,36.7684 100.156,34.459 C100.156,30.8429 102.01,24.9782 105.444,24.9782 C107.662,24.9782 108.422,26.9229 108.422,28.7766 C108.422,32.6357 106.507,38.5916 103.195,38.5916 Z M130.938,20.1162 C126.684,20.1162 124.284,23.8842 124.284,23.8842 L124.223,23.8842 L124.588,20.5113 L118.996,20.5113 C118.723,22.7903 118.206,26.2848 117.72,28.8677 L113.375,51.9316 L119.665,51.9316 L121.427,42.6027 L121.579,42.6027 C121.579,42.6027 122.886,43.4232 125.256,43.4232 C132.671,43.4232 137.502,35.8264 137.502,28.1688 C137.472,23.9146 135.557,20.1162 130.938,20.1162 L130.938,20.1162 Z M124.922,38.6524 C123.281,38.6524 122.309,37.7104 122.309,37.7104 L123.342,31.8457 C124.071,27.8953 126.137,25.3124 128.325,25.3124 C130.27,25.3124 130.847,27.1053 130.847,28.7766 C130.878,32.8484 128.447,38.6524 124.922,38.6524 L124.922,38.6524 Z M146.466,11.0912 C144.461,11.0912 142.85,12.7017 142.85,14.7377 C142.85,16.5913 144.035,17.898 145.828,17.898 L145.889,17.898 C147.864,17.898 149.535,16.5609 149.566,14.2515 C149.596,12.3979 148.35,11.0912 146.466,11.0912 L146.466,11.0912 Z M137.654,42.9674 L143.944,42.9674 L148.198,20.6024 L141.878,20.6024 L137.654,42.9674 Z M164.243,20.572 L159.867,20.572 L160.08,19.5389 C160.444,17.3814 161.721,15.4974 163.848,15.4974 C164.972,15.4974 165.853,15.8316 165.853,15.8316 L167.069,10.8785 C167.069,10.8785 166.005,10.3315 163.635,10.3315 C161.417,10.3315 159.168,10.9697 157.467,12.4283 C155.309,14.2515 154.306,16.8952 153.82,19.5692 L153.638,20.6024 L150.69,20.6024 L149.748,25.3732 L152.696,25.3732 L149.353,42.9978 L155.643,42.9978 L158.986,25.3732 L163.331,25.3732 L164.243,20.572 L164.243,20.572 Z M179.406,20.6024 C179.406,20.6024 175.456,30.539 173.724,35.9783 L173.663,35.9783 C173.541,34.2159 172.113,20.6024 172.113,20.6024 L165.489,20.6024 L169.287,41.0834 C169.348,41.5392 169.318,41.8127 169.135,42.1165 C168.406,43.5447 167.16,44.9122 165.701,45.9149 C164.516,46.7658 163.179,47.3431 162.116,47.7078 L163.878,53.0559 C165.154,52.7824 167.829,51.7189 170.047,49.6222 C172.903,46.9481 175.577,42.7851 178.312,37.133 L186,20.572 L179.406,20.572 L179.406,20.6024 Z" id="Shape" fill="#FFFFFF"></path>
            </g>
        </g>
    </g>
</svg>