<?xml version="1.0" encoding="UTF-8"?>
<svg width="120px" height="60px" viewBox="0 0 255 130" version="1.1" xmlns="http://www.w3.org/2000/svg" xmlns:xlink="http://www.w3.org/1999/xlink">
    <!-- Generator: Sketch 57.1 (83088) - https://sketch.com -->
    <title>newyork-bw</title>
    <desc>Created with Sketch.</desc>
    <g id="customers.mapbox.com-copy" stroke="none" stroke-width="1" fill="none" fill-rule="evenodd">
        <g id="newyork-bw" fill-rule="nonzero">
            <rect id="Rectangle-Copy-55" fill="#F9FBFC" x="0" y="0" width="255" height="130"></rect>
            <g id="5d6e7fa41fcdd45ed8a7a2bd_NewYorkTimes-logo" transform="translate(23.000000, 51.000000)" fill="#8A989E">
                <path d="M15.6515191,2.80991983 C15.6515191,0.561983167 13.4965592,0 11.7953593,0 L11.7953593,0.33719038 C12.8160792,0.33719038 13.6099992,0.67437996 13.6099992,1.46115991 C13.6099992,1.91074389 13.2697592,2.58511985 12.2489593,2.58511985 C11.4550393,2.58511985 9.75383942,2.13553587 8.50623949,1.6859519 C7.03183158,1.12396793 5.67083166,0.67437996 4.53666373,0.67437996 C2.26833586,0.67437996 0.680499959,2.36032786 0.680499959,4.27107175 C0.680499959,5.95702364 1.92807989,6.51900761 2.38175186,6.7437996 L2.49516785,6.51900761 C2.26833586,6.29421562 1.92807989,6.06942364 1.92807989,5.39503968 C1.92807989,4.94545571 2.38175186,4.15867975 3.51591179,4.15867975 C4.53666373,4.15867975 5.89766365,4.60826373 7.71232754,5.17024769 C9.30015945,5.61983167 11.0014393,5.95702364 11.9087193,6.06942364 L11.9087193,9.55367943 L10.2075194,11.0148793 L10.2075194,11.1272793 L11.9087193,12.5883992 L11.9087193,17.421519 C11.0014393,17.9834389 9.98063941,18.0958389 9.07335946,18.0958389 C7.37207956,18.0958389 5.89766365,17.6463189 4.65007972,16.297519 L9.30015945,14.0495992 L9.30015945,6.29421562 L3.62932778,8.76695948 C4.08299976,7.30578356 5.33058368,6.29421562 6.57815961,5.61983167 L6.46474361,5.28264769 C3.06224782,6.18181563 0,9.32895944 0,13.1503992 C0,17.6463189 3.74275178,21.0181587 7.93915953,21.0181587 C12.4758393,21.0181587 15.4246391,17.421519 15.4246391,13.7123992 L15.1978391,13.7123992 C14.5173591,15.1735191 13.4965592,16.522319 12.2489593,17.196719 L12.2489593,12.5883992 L14.0636792,11.1272793 L14.0636792,11.0148793 L12.2489593,9.55367943 L12.2489593,6.06942364 C13.9502392,6.06942364 15.6515191,4.94545571 15.6515191,2.80991983 Z M5.78424766,15.1735191 L4.42324774,15.8479191 C3.62932778,14.8363991 3.17566381,13.4875992 3.17566381,11.5768793 C3.17566381,10.7900794 3.17566381,9.89087941 3.4024958,9.21655945 L5.78424766,8.20495951 L5.78424766,15.1735191 L5.78424766,15.1735191 Z M17.8063989,17.7586389 L16.331999,18.8826389 L16.558799,19.1074389 L17.239359,18.5454389 L19.7344788,20.7933588 L23.1369586,18.5454389 L23.0235986,18.3206389 L22.1162387,18.8826389 L20.9820787,17.7586389 L20.9820787,10.1156794 L21.8894387,9.44135944 L23.8175186,11.0148793 L23.8175186,17.8710389 C23.8175186,22.1421587 22.9101586,22.8165586 20.9820787,23.4908786 L20.9820787,23.8280786 C24.1577586,23.9404786 27.1065584,22.9289586 27.1065584,17.421519 L27.1065584,10.0032794 L28.1272783,9.21655945 L27.9004783,8.99175946 L26.9931184,9.66607942 L24.1577586,7.30578356 L20.9820787,9.66607942 L20.9820787,0.449586373 L20.7551988,0.449586373 L16.785679,3.14710381 L16.785679,3.3719038 C17.239359,3.59669579 17.9198389,3.82148777 17.9198389,5.0578477 L17.8063989,17.7586389 L17.8063989,17.7586389 Z M38.5616777,16.522319 L35.7262379,18.6578389 L32.890798,16.409919 L32.890798,15.0611191 L38.2213577,11.4644793 L38.2213577,11.3520793 L35.4993579,7.30578356 L29.6017582,10.4528794 L29.6017582,17.8710389 L28.4675983,18.7702389 L28.6943983,18.9950389 L29.7151182,18.2082389 L33.571278,21.0181587 L38.6750377,16.971919 L38.5616777,16.522319 L38.5616777,16.522319 Z M32.890798,14.6115991 L32.890798,9.10415946 L33.117678,8.99175946 L35.6127979,12.9255992 L32.890798,14.6115991 Z M60.2242364,1.79834389 C60.2242364,1.46115991 60.1107964,1.12396793 59.9973564,0.786776753 L59.7705564,0.786776753 C59.4303165,1.6859519 58.9766365,2.13553587 57.8424766,2.13553587 C56.8217566,2.13553587 56.1411967,1.57355191 55.6875167,1.12396793 L52.3984769,4.83305571 L52.6252769,5.0578477 L53.7594368,4.04627976 C54.4399968,4.60826373 55.0070367,5.0578477 56.5948766,5.17024769 L56.5948766,14.4991991 L49.903277,3.14710381 C49.3362371,2.24793587 48.5423171,1.01156794 46.9544772,1.01156794 C45.1398373,1.01156794 43.5519974,2.58511985 43.7787974,5.0578477 L44.1190374,5.0578477 C44.2324774,4.38347174 44.5727173,3.59669579 45.3666373,3.59669579 C45.9337573,3.59669579 46.5007972,4.15867975 46.8410372,4.72066372 L46.8410372,8.4297595 C44.7995973,8.4297595 43.4385574,9.32895944 43.4385574,11.0148793 C43.4385574,11.9140793 43.8922374,13.2627992 45.2531973,13.5999992 L45.2531973,13.3751992 C45.0263973,13.1503992 44.9129573,12.9255992 44.9129573,12.5883992 C44.9129573,12.0264793 45.3666373,11.5768793 46.1605572,11.5768793 L46.7276772,11.5768793 L46.7276772,16.297519 C44.3459174,16.297519 42.4178375,17.6463189 42.4178375,19.8942388 C42.4178375,22.0297587 44.2324774,23.0413586 46.2739972,22.9289586 L46.2739972,22.7041586 C45.0263973,22.5917587 44.4592774,22.0297587 44.4592774,21.2429587 C44.4592774,20.2314388 45.1398373,19.7818388 46.0471173,19.7818388 C46.9544772,19.7818388 47.7483972,20.3438388 48.3154371,21.0181587 L51.6045569,17.421519 L51.3777569,17.196719 L50.583837,18.0958389 C49.3362371,16.971919 48.6557571,16.634719 47.1812772,16.409919 L47.1812772,5.17024769 L56.2546366,20.9057588 L56.9351166,20.9057588 L56.9351166,5.17024769 C58.6363965,5.0578477 60.2242364,3.70908778 60.2242364,1.79834389 L60.2242364,1.79834389 Z M68.5035959,16.522319 L65.6682361,18.6578389 L62.8327963,16.409919 L62.8327963,15.0611191 L68.1633559,11.4644793 L68.1633559,11.3520793 L65.4413561,7.30578356 L59.5437565,10.4528794 L59.5437565,17.8710389 L58.4095165,18.7702389 L58.6363965,18.9950389 L59.6571164,18.2082389 L63.5132762,21.0181587 L68.6170359,16.971919 L68.5035959,16.522319 L68.5035959,16.522319 Z M62.8327963,14.6115991 L62.8327963,9.10415946 L63.0595962,8.99175946 L65.5547961,12.9255992 L62.8327963,14.6115991 L62.8327963,14.6115991 Z M86.9903948,8.54215949 L86.1967949,9.10415946 L84.041595,7.30578356 L81.5463951,9.55367943 L82.5671951,10.5652794 L82.5671951,18.9950389 L79.8452752,17.309119 L79.8452752,10.3404794 L80.7527952,9.77847942 L78.1440753,7.30578356 L75.6488755,9.55367943 L76.6695954,10.5652794 L76.6695954,18.6578389 L76.3293555,18.8826389 L73.9475956,17.196719 L73.9475956,10.4528794 C73.9475956,8.87935947 73.1536756,8.4297595 72.2463957,7.86776753 C71.4524757,7.30578356 70.9987958,6.96859158 70.9987958,6.18181563 C70.9987958,5.50743967 71.6792757,5.17024769 72.0195157,4.94545571 L72.0195157,4.72066372 C71.1122358,4.72066372 68.7304759,5.61983167 68.7304759,7.75536754 C68.7304759,8.87935947 69.2975159,9.32895944 69.8646358,9.89087941 C70.4316758,10.4528794 70.9987958,10.9024794 70.9987958,11.9140793 L70.9987958,18.4330389 L69.7511958,19.3322388 L69.9780758,19.5570388 L71.1122358,18.6578389 L73.7207956,20.9057588 L76.5562354,18.9950389 L79.7319152,20.9057588 L85.7431949,17.421519 L85.7431949,9.89087941 L87.2175948,8.76695948 L86.9903948,8.54215949 L86.9903948,8.54215949 Z M108.086394,2.36032786 L106.951994,3.3719038 L104.456794,1.12396793 L100.713594,3.82148777 L100.713594,1.34875992 L100.373594,1.34875992 L100.487194,19.5570388 C100.147194,19.5570388 99.1263941,19.3322388 98.3319941,19.1074389 L98.1055942,3.93388777 C98.1055942,2.80991983 97.3111942,1.23635993 95.2695943,1.23635993 C93.2287944,1.23635993 91.8671945,2.80991983 91.8671945,4.38347174 L92.2079945,4.38347174 C92.3207945,3.70908778 92.6615945,3.14710381 93.3415944,3.14710381 C94.0223944,3.14710381 94.5895944,3.59669579 94.5895944,5.0578477 L94.5895944,9.44135944 C92.5479945,9.55367943 91.2999946,10.6776794 91.2999946,12.1388793 C91.2999946,13.0379992 91.7543945,14.3867991 93.1151944,14.3867991 L93.1151944,14.1619992 C92.6615945,13.9371992 92.5479945,13.5999992 92.5479945,13.3751992 C92.5479945,12.7007992 93.1151944,12.4759993 94.0223944,12.4759993 L94.4759944,12.4759993 L94.4759944,19.4446388 C92.7743945,20.0066388 92.0943945,21.2429587 92.0943945,22.5917587 C92.0943945,24.5024785 93.5687944,25.8511985 95.8367943,25.8511985 C97.4247942,25.8511985 98.7855941,25.6264785 100.147194,25.2892785 C101.280794,25.0644785 102.755194,24.7272785 103.435994,24.7272785 C104.343194,24.7272785 104.683194,25.1768785 104.683194,25.7388785 C104.683194,26.5255984 104.343194,26.8627984 103.889594,26.9751984 L103.889594,27.1999984 C105.703994,26.8627984 106.838394,25.7388785 106.838394,24.0528786 C106.838394,22.3669587 105.136794,21.3553587 103.322394,21.3553587 C102.415194,21.3553587 100.487194,21.6925587 99.1263941,21.9173587 C97.5383942,22.2545587 95.9503943,22.4793587 95.4967943,22.4793587 C94.7031944,22.4793587 93.7951944,22.1421587 93.7951944,21.0181587 C93.7951944,20.1190388 94.5895944,19.3322388 96.5175942,19.3322388 C97.5383942,19.3322388 98.7855941,19.4446388 100.033594,19.7818388 C101.394394,20.1190388 102.642394,20.4561588 103.775994,20.4561588 C105.477594,20.4561588 106.951994,19.8942388 106.951994,17.533919 L106.951994,3.70908778 L108.312794,2.58511985 L108.086394,2.36032786 L108.086394,2.36032786 Z M103.435994,9.21655945 C103.095994,9.55367943 102.642394,9.89087941 102.075194,9.89087941 C101.507994,9.89087941 100.940794,9.55367943 100.713594,9.21655945 L100.713594,4.27107175 L101.847994,3.48429579 L103.435994,4.94545571 L103.435994,9.21655945 Z M103.435994,12.5883992 C103.208794,12.3635993 102.642394,12.0264793 102.075194,12.0264793 C101.507994,12.0264793 100.940794,12.3635993 100.713594,12.5883992 L100.713594,9.66607942 C100.940794,9.89087941 101.507994,10.2280794 102.075194,10.2280794 C102.642394,10.2280794 103.208794,9.89087941 103.435994,9.66607942 L103.435994,12.5883992 Z M103.435994,17.8710389 C103.435994,18.7702389 102.868794,19.6694388 101.621594,19.6694388 L100.713594,19.6694388 L100.713594,13.0379992 C100.940794,12.8131992 101.507994,12.4759993 102.075194,12.4759993 C102.642394,12.4759993 103.095994,12.8131992 103.435994,13.0379992 L103.435994,17.8710389 L103.435994,17.8710389 Z M118.974393,9.89087941 L115.344793,7.30578356 L109.787193,10.4528794 L109.787193,17.7586389 L108.652794,18.6578389 L108.766394,18.8826389 L109.673593,18.2082389 L113.303193,20.9057588 L118.974393,17.533919 L118.974393,9.89087941 L118.974393,9.89087941 Z M112.849593,16.971919 L112.849593,8.87935947 L115.684793,10.9024794 L115.684793,18.8826389 L112.849593,16.971919 L112.849593,16.971919 Z M129.748792,7.53057555 L129.521592,7.53057555 C129.181592,7.75536754 128.841592,7.98016752 128.500792,7.98016752 C128.047192,7.98016752 127.479992,7.75536754 127.253592,7.41818356 L127.026392,7.41818356 L125.098393,9.55367943 L123.170393,7.41818356 L119.767993,9.66607942 L119.881593,9.89087941 L120.788793,9.32895944 L121.923193,10.5652794 L121.923193,17.6463189 L120.448793,18.7702389 L120.675193,18.9950389 L121.355993,18.4330389 L124.077593,20.6809588 L127.593592,18.3206389 L127.479992,18.0958389 L126.459192,18.6578389 L125.098393,17.533919 L125.098393,9.66607942 C125.665593,10.2280794 126.346392,10.7900794 127.139992,10.7900794 C128.727992,10.9024794 129.635192,9.32895944 129.748792,7.53057555 L129.748792,7.53057555 Z M143.358391,18.3206389 L139.502392,20.9057588 L134.285592,13.0379992 L138.027992,7.30578356 L138.255192,7.30578356 C138.708792,7.75536754 139.388792,8.20495951 140.183192,8.20495951 C140.976792,8.20495951 141.543992,7.75536754 141.883992,7.30578356 L142.111192,7.30578356 C141.997592,9.55367943 140.409592,10.9024794 139.275992,10.9024794 C138.141592,10.9024794 137.574392,10.3404794 136.893592,10.0032794 L136.553592,10.5652794 L142.224792,18.8826389 L143.358391,18.2082389 L143.358391,18.3206389 L143.358391,18.3206389 Z M130.882392,17.7586389 L129.407992,18.8826389 L129.635192,19.1074389 L130.315992,18.5454389 L132.811192,20.7933588 L136.213592,18.5454389 L135.986392,18.3206389 L135.079192,18.8826389 L133.944792,17.7586389 L133.944792,0.449586373 L133.831992,0.449586373 L129.748792,3.14710381 L129.748792,3.3719038 C130.202392,3.59669579 130.882392,3.70908778 130.882392,5.0578477 L130.882392,17.7586389 L130.882392,17.7586389 Z M162.18559,2.80991983 C162.18559,0.561983167 160.03119,0 158.329591,0 L158.329591,0.33719038 C159.350391,0.33719038 160.14399,0.67437996 160.14399,1.46115991 C160.14399,1.91074389 159.80399,2.58511985 158.783191,2.58511985 C157.989591,2.58511985 156.287991,2.13553587 155.040791,1.6859519 C153.566391,1.23635993 152.204791,0.786776753 151.071191,0.786776753 C148.802391,0.786776753 147.214391,2.47272785 147.214391,4.38347174 C147.214391,6.06942364 148.462391,6.6314076 148.915991,6.85619959 L149.029591,6.6314076 C148.688791,6.40660762 148.348791,6.18181563 148.348791,5.50743967 C148.348791,5.0578477 148.802391,4.27107175 149.936791,4.27107175 C150.957591,4.27107175 152.318391,4.72066372 154.132791,5.28264769 C155.720791,5.73223166 157.422391,6.06942364 158.329591,6.18181563 L158.329591,9.66607942 L156.627991,11.1272793 L156.627991,11.2396793 L158.329591,12.7007992 L158.329591,17.533919 C157.422391,18.0958389 156.401591,18.2082389 155.494391,18.2082389 C153.792791,18.2082389 152.318391,17.7586389 151.071191,16.409919 L155.720791,14.1619992 L155.720791,6.29421562 L150.050391,8.76695948 C150.617591,7.30578356 151.864791,6.29421562 152.999191,5.50743967 L152.885591,5.28264769 C149.483191,6.18181563 146.420791,9.21655945 146.420791,13.0379992 C146.420791,17.533919 150.163991,20.9057588 154.359991,20.9057588 C158.896791,20.9057588 161.84559,17.309119 161.84559,13.5999992 L161.61839,13.5999992 C160.93839,15.0611191 159.91759,16.409919 158.669591,17.084319 L158.669591,12.4759993 L160.48479,11.0148793 L160.48479,10.9024794 L158.783191,9.44135944 L158.783191,6.06942364 C160.48479,6.06942364 162.18559,4.94545571 162.18559,2.80991983 L162.18559,2.80991983 Z M152.318391,15.1735191 L150.957591,15.8479191 C150.163991,14.8363991 149.709591,13.4875992 149.709591,11.5768793 C149.709591,10.7900794 149.823191,9.89087941 150.050391,9.21655945 L152.431991,8.20495951 L152.318391,15.1735191 L152.318391,15.1735191 Z M166.15519,1.6859519 L166.04159,1.6859519 L163.77359,3.59669579 L163.77359,3.70908778 L165.70159,5.84462365 L165.92879,5.84462365 L168.19679,3.93388777 L168.19679,3.82148777 L166.15519,1.6859519 L166.15519,1.6859519 Z M169.55759,18.3206389 L168.65039,18.8826389 L167.51599,17.7586389 L167.51599,10.0032794 L168.65039,9.21655945 L168.42399,8.99175946 L167.62959,9.66607942 L165.58799,7.30578356 L162.29919,9.55367943 L162.52639,9.89087941 L163.31999,9.32895944 L164.34079,10.5652794 L164.34079,17.8710389 L162.86639,18.9950389 L162.97999,19.2198389 L163.77359,18.6578389 L166.26879,20.9057588 L169.67119,18.6578389 L169.55759,18.3206389 L169.55759,18.3206389 Z M188.498389,18.2082389 L187.704789,18.7702389 L186.456789,17.6463189 L186.456789,10.0032794 L187.591189,9.10415946 L187.363989,8.87935947 L186.456789,9.66607942 L183.847989,7.30578356 L180.445589,9.66607942 L177.837589,7.30578356 L174.66159,9.66607942 L172.61999,7.30578356 L169.33119,9.55367943 L169.44479,9.89087941 L170.23839,9.32895944 L171.37279,10.5652794 L171.37279,17.8710389 L170.46479,18.7702389 L173.07359,20.9057588 L175.56879,18.6578389 L174.54799,17.6463189 L174.54799,10.0032794 L175.56879,9.32895944 L177.270389,10.9024794 L177.270389,17.6463189 L176.363189,18.5454389 L178.971189,20.6809588 L181.466389,18.4330389 L180.445589,17.421519 L180.445589,10.0032794 L181.352789,9.44135944 L183.167989,11.0148793 L183.167989,17.7586389 L182.373589,18.5454389 L184.982389,20.9057588 L188.498389,18.5454389 L188.498389,18.2082389 L188.498389,18.2082389 Z M198.365588,16.522319 L195.530388,18.6578389 L192.695189,16.409919 L192.695189,15.0611191 L198.025588,11.4644793 L198.025588,11.3520793 L195.303188,7.30578356 L189.405589,10.4528794 L189.405589,18.0958389 L193.375188,20.9057588 L198.479188,16.859519 L198.365588,16.522319 L198.365588,16.522319 Z M192.695189,14.6115991 L192.695189,9.10415946 L192.921589,8.99175946 L195.416788,12.9255992 L192.695189,14.6115991 L192.695189,14.6115991 Z M208.686388,13.5999992 L206.531988,11.9140793 C208.006388,10.6776794 208.572788,8.99175946 208.572788,7.86776753 L208.572788,7.19339157 L208.346388,7.19339157 C208.119188,7.75536754 207.665588,8.3173595 206.758388,8.3173595 C205.851188,8.3173595 205.283988,7.86776753 204.716788,7.19339157 L199.613588,10.0032794 L199.613588,14.0495992 L201.541588,15.5107191 C199.613588,17.196719 199.272788,18.3206389 199.272788,19.2198389 C199.272788,20.3438388 199.839988,21.1305587 200.747188,21.4677587 L200.860788,21.2429587 C200.633588,21.0181587 200.407188,20.9057588 200.407188,20.3438388 C200.407188,20.0066388 200.860788,19.4446388 201.767988,19.4446388 C202.902388,19.4446388 203.583188,20.2314388 203.923188,20.5685588 L208.799988,17.6463189 L208.799988,13.5999992 L208.686388,13.5999992 L208.686388,13.5999992 Z M207.439188,10.2280794 C206.644788,11.5768793 204.943988,12.9255992 203.923188,13.5999992 L202.675188,12.5883992 L202.675188,8.65455948 C203.128788,9.77847942 204.376788,10.6776794 205.623988,10.6776794 C206.418388,10.6776794 206.871988,10.5652794 207.439188,10.2280794 L207.439188,10.2280794 Z M205.511188,19.2198389 C204.943988,17.9834389 203.583188,17.084319 202.221588,17.084319 C201.881588,17.084319 200.974388,17.084319 200.067188,17.6463189 C200.633588,16.747119 202.108788,15.1735191 204.036788,14.0495992 L205.397588,15.1735191 L205.511188,19.2198389 L205.511188,19.2198389 Z" id="Shape"></path>
            </g>
        </g>
    </g>
</svg>