<?xml version="1.0" encoding="UTF-8"?>
<svg width="120px" height="60px" viewBox="0 0 255 130" version="1.1" xmlns="http://www.w3.org/2000/svg" xmlns:xlink="http://www.w3.org/1999/xlink">
    <!-- Generator: Sketch 57.1 (83088) - https://sketch.com -->
    <title>tableau-bw</title>
    <desc>Created with Sketch.</desc>
    <g id="customers.mapbox.com-copy" stroke="none" stroke-width="1" fill="none" fill-rule="evenodd">
        <g id="tableau-bw" fill-rule="nonzero">
            <rect id="Rectangle-Copy-51" fill="#F9FBFC" x="0" y="0" width="255" height="130"></rect>
            <g id="5d724c09ed215733dcc680e6_tableau_logo" transform="translate(40.000000, 45.000000)" fill="#8A989E">
                <path d="M95.0239943,29.3805582 L95.0239943,10.1573594 L97.8719942,10.1573594 L97.8719942,17.087199 L99.8183941,16.660079 C103.235994,15.9006391 106.985594,17.8941589 107.459994,22.4032787 C107.548794,23.4534386 107.468794,24.5110385 107.222394,25.5359185 C106.605594,28.1464783 104.754394,29.5703982 102.239194,30.0925582 C99.7231941,30.6146382 97.4447942,30.1874382 95.0239943,29.3805582 Z M97.8247942,27.1022384 C98.5327941,27.4412784 99.3031941,27.6290384 100.087994,27.6535984 C100.872794,27.6780784 101.653594,27.5387984 102.381594,27.2446384 C102.811194,27.0670384 103.195994,26.7959984 103.507994,26.4511984 C103.819994,26.1063984 104.051194,25.6964785 104.184794,25.2511185 C104.422394,24.4674385 104.518394,23.6478386 104.469594,22.8304786 C104.279994,20.9318388 103.472794,19.7452788 101.763994,19.3180788 C100.427194,18.9802389 99.0111941,19.1850389 97.8247942,19.8875988 L97.8247942,27.1022384 Z M83.110395,17.229599 C83.110395,17.039759 83.158395,16.802399 83.158395,16.517679 L85.8631949,16.517679 C86.1007949,17.514399 86.1007949,25.2986385 85.8159949,29.3805582 L85.0567949,29.7127982 C82.5887951,30.3773582 80.0727952,30.6620782 77.6047154,29.7603182 C76.4733554,29.4014382 75.4795955,28.7035983 74.7579155,27.7611983 C74.0363156,26.8188784 73.6216756,25.6775185 73.5702356,24.4916785 C73.4023156,23.2199186 73.4992756,21.9271187 73.8550356,20.6945588 C75.0416755,17.229599 78.2691953,16.137919 80.9743952,16.612559 C81.6967951,16.780639 82.4095951,16.986559 83.110395,17.229599 Z M83.063195,19.9825588 C82.5727951,19.6929588 82.0455951,19.4695188 81.4967951,19.3180788 C79.4083953,18.8434389 77.6521554,19.5553588 76.8452754,21.3590387 C76.4123154,22.4125587 76.3291155,23.5771986 76.6079954,24.6815985 C76.7246354,25.4604785 77.1032754,26.1763984 77.6813554,26.7113584 C78.2594353,27.2463184 79.0024753,27.5683184 79.7880752,27.6243984 C80.8903952,27.7727983 82.0127951,27.6589584 83.063195,27.2921584 L83.063195,19.9825588 Z M154.164791,17.324559 C154.178391,17.037999 154.210391,16.752639 154.259991,16.470159 L157.012791,16.470159 L157.012791,29.2855983 C156.348791,29.8077582 155.588791,29.8551982 154.829591,29.9975982 C153.035191,30.4252782 151.165591,30.4252782 149.371191,29.9975982 C146.618391,29.2381583 145.051991,27.5294384 144.624791,24.6815985 C144.394391,23.4153586 144.475991,22.1120787 144.862391,20.8843988 C146.048791,16.754959 150.367991,15.8056791 153.215991,16.897359 L154.164791,17.324559 Z M154.164791,27.2921584 L154.164791,19.9825588 C153.648791,19.7124788 153.107991,19.4900788 152.551191,19.3180788 C150.225591,18.7959189 148.279191,19.6503188 147.710391,22.0235187 C147.409591,23.0835986 147.442391,24.2105586 147.804791,25.2511185 C149.228791,29.1907183 154.164791,27.2921584 154.164791,27.2921584 Z M137.789592,24.0170386 L128.202392,24.0170386 C128.296792,26.2003984 129.578392,27.5294384 131.667192,27.6718384 C133.506392,27.8243183 135.354392,27.4972784 137.030392,26.7225584 L137.030392,29.3331183 C136.274392,29.8273582 135.412792,30.1363182 134.515192,30.2349582 C132.141592,30.5671982 129.815992,30.4722382 127.727192,29.0483183 C126.995192,28.5376783 126.383192,27.8743183 125.931992,27.1039984 C125.481593,26.3337584 125.203193,25.4748785 125.116793,24.5866385 C124.811193,22.6911986 125.253593,20.7511188 126.351192,19.1756789 C127.822392,17.087199 129.910392,16.280319 132.379192,16.565119 C135.653592,16.992319 137.599992,19.2705589 137.789592,22.5931187 L137.789592,24.0170386 Z M134.562392,21.8811187 C134.657592,20.6470388 134.182392,19.8401588 133.138392,19.4129588 C132.659992,19.2291989 132.147992,19.1481589 131.636792,19.1749589 C131.124792,19.2017589 130.624792,19.3359188 130.167992,19.5686388 C129.711192,19.8014388 129.308792,20.1275988 128.986392,20.5259188 C128.663992,20.9243188 128.429592,21.3860787 128.296792,21.8811187 L134.562392,21.8811187 Z M56.9575966,19.0332789 L49.4582371,19.0332789 L49.4582371,21.6912787 L54.4894368,21.6912787 C55.3438367,21.6912787 56.1507167,21.5488787 57.0051166,21.7862387 L57.0051166,30.2823982 L59.9003964,30.2823982 L59.9003964,21.6912787 L67.447276,21.6912787 L67.447276,20.3623188 C67.447276,19.9351188 67.399836,19.5079188 67.399836,18.9858389 L59.8529564,18.9858389 L59.8529564,11.0591993 L56.9575966,11.0591993 L56.9575966,19.0332789 Z M164.32239,16.802399 C164.27519,17.039759 164.22799,18.0364789 164.22799,18.2263989 C164.22799,20.8843988 164.27519,22.8304786 164.22799,25.4884785 C164.17999,28.1464783 165.65199,29.2855983 167.64479,29.9026382 C169.00639,30.2819182 170.43839,30.3307182 171.82239,30.0450382 C174.47999,29.5703982 176.04639,27.9566383 175.99919,25.1087185 L175.99919,17.7042389 C175.98639,17.386239 175.95439,17.069199 175.90399,16.754959 L173.10319,16.754959 L173.10319,18.3687989 C173.10319,20.5995988 173.15119,22.8304786 173.10319,25.0612785 C173.05599,27.2921584 172.34399,27.8142383 170.87279,28.0515183 C170.23679,28.1230383 169.59279,28.0747983 168.97439,27.9091183 C168.45919,27.8087983 167.99599,27.5300784 167.66639,27.1220784 C167.33599,26.7140784 167.16079,26.2028784 167.17039,25.6783185 L167.17039,16.802399 L164.32239,16.802399 Z M114.627193,32.6081581 L117.427193,32.6081581 L117.427193,31.7537581 C117.427193,23.7322386 117.427193,15.7107191 117.379993,7.64175954 L117.379993,7.54683155 L117.284793,7.45190356 L114.674393,7.45190356 L114.627193,32.6081581 Z" id="Shape"></path>
                <path d="M24.3017586,3.70223978 L20.9792787,3.70223978 L20.9792787,0 L19.7451988,0 L19.7451988,3.70223978 L16.422639,3.70223978 L16.422639,4.84139171 L19.7451988,4.84139171 L19.7451988,8.54359949 L21.0267187,8.54359949 L21.0267187,4.79392771 L24.3017586,4.79392771 L24.3017586,3.70223978 Z M29.8552782,16.375279 L31.8013581,16.375279 L31.8013581,10.9643193 L36.7851178,10.9643193 L36.7851178,9.30303945 L32.3234381,9.30303945 C32.0623981,9.30303945 31.9318381,9.30303945 31.8665581,9.23775945 C31.8013581,9.17255945 31.8013581,9.04199946 31.8013581,8.78095948 L31.8013581,8.78095948 L31.8013581,3.84463177 L29.8552782,3.84463177 L29.8552782,9.30303945 L24.8715185,9.30303945 L24.8715185,11.0117593 L29.8552782,11.0117593 L29.8552782,16.375279 Z M21.4537587,12.7679992 L21.4537587,18.7959989 L26.9595984,18.7959989 L26.9595984,21.0268787 L21.4537587,21.0268787 L21.4537587,27.0548784 L19.2228789,27.0548784 L19.2228789,21.0268787 L13.6695192,21.0268787 L13.6695192,18.8435189 L19.2228789,18.8435189 L19.2228789,12.7679992 L21.4537587,12.7679992 Z M31.8013581,23.3525586 L31.8013581,28.7160783 L36.7851178,28.7160783 L36.7851178,30.4247982 L31.8013581,30.4247982 L31.8013581,35.8832779 L29.8552782,35.8832779 L29.8552782,30.4723182 L24.8715185,30.4723182 L24.8715185,28.7635183 L29.8552782,28.7635183 L29.8552782,23.3525586 L31.8013581,23.3525586 Z M8.87599947,35.8832779 L8.87599947,30.4247982 L3.89218377,30.4247982 L3.89218377,28.7635183 L8.82847947,28.7635183 L8.82847947,23.3525586 L10.7745594,23.3525586 L10.7745594,28.7635183 L15.7583191,28.7635183 L15.7583191,30.4247982 L10.7745594,30.4247982 L10.7745594,35.8832779 L8.87599947,35.8832779 Z M15.7583191,10.9168793 L15.7583191,9.30303945 L10.7271194,9.30303945 L10.7271194,3.84463177 L8.92343947,3.84463177 L8.92343947,9.30303945 L3.89218377,9.30303945 L3.89218377,10.9643193 L8.97087947,10.9643193 L8.97087947,16.375279 L10.7745594,16.375279 L10.7745594,10.9168793 L15.7583191,10.9168793 Z M21.1693587,34.7915979 L24.5867985,34.7915979 L24.5867985,36.2630378 L21.1693587,36.2630378 L21.1693587,40.0601576 L19.5555188,40.0601576 L19.5555188,36.3104778 L16.185519,36.3104778 L16.185519,34.7915979 L19.5080788,34.7915979 L19.5080788,30.9943982 L21.1693587,30.9943982 L21.1693587,34.7915979 Z M35.5984779,20.6945588 L35.5984779,24.4443185 L37.2597578,24.4443185 L37.2597578,20.6471188 L40.5823176,20.6471188 L40.5823176,19.1757589 L37.2597578,19.1757589 L37.2597578,15.4259991 L35.5984779,15.4259991 L35.5984779,19.2231989 L32.2284781,19.2231989 L32.2284781,20.6945588 L35.5984779,20.6945588 Z M3.3699918,20.5047188 L0,20.5047188 L0,19.3180788 L3.3225278,19.3180788 L3.3225278,15.7107991 L4.60407173,15.7107991 L4.60407173,19.3180788 L7.92659153,19.3180788 L7.92659153,20.5047188 L5.0312477,20.5047188 C4.69899972,20.5047188 4.55660773,20.5996788 4.55660773,20.9793587 C4.55660773,21.3591187 4.55660773,22.8779186 4.60407173,23.8272786 C4.63651972,24.4763185 4.58022373,24.4375185 4.45034373,24.3480785 C4.39025574,24.3066386 4.31443174,24.2543986 4.22435175,24.2543986 C3.93956777,24.2543986 3.3699918,24.2543986 3.3699918,23.4000786 L3.3699918,20.5047188 Z" id="Shape"></path>
            </g>
        </g>
    </g>
</svg>