<?xml version="1.0" encoding="UTF-8"?>
<svg width="120px" height="60px" viewBox="0 0 255 130" version="1.1" xmlns="http://www.w3.org/2000/svg" xmlns:xlink="http://www.w3.org/1999/xlink">
    <!-- Generator: Sketch 57.1 (83088) - https://sketch.com -->
    <title>wework-bw</title>
    <desc>Created with Sketch.</desc>
    <g id="customers.mapbox.com-copy" stroke="none" stroke-width="1" fill="none" fill-rule="evenodd">
        <g id="wework-bw" fill-rule="nonzero">
            <rect id="Rectangle-Copy-54" fill="#F9FBFC" x="0" y="0" width="255" height="130"></rect>
            <g id="5d6e7fa45eb17896122f2494_wework-logo" transform="translate(41.000000, 39.000000)" fill="#8A989E">
                <path d="M14.6264,17.8564 C15.6902,17.8564 16.6187,17.8935 17.4415,18.0436 C18.6128,18.2493 19.6043,19.882 19.6043,20.679 C19.6043,21.0867 19.6043,21.5389 19.4264,22.1986 C19.1373,23.2105 17.1505,26.8504 16.324,28.22 C15.3288,26.6058 12.9862,22.0467 12.1763,20.2712 C11.8242,19.5262 11.6463,18.9072 11.6463,18.6033 C11.6463,18.0436 12.7583,17.8564 14.6264,17.8564 L14.6264,17.8564 Z M1.35129,17.8564 C2.34465,18.1029 2.92658,18.3086 3.74203,19.769 C6.61277,25.0379 9.48721,30.8461 12.2838,36.5598 C12.6359,36.8563 13.0474,36.923 13.6423,36.923 C14.2168,36.923 14.6245,36.8563 14.9915,36.5616 C16.324,34.0467 19.8397,27.297 21.3556,24.6765 C23.12,27.916 26.1575,33.828 27.3899,36.5616 C27.7309,36.8581 28.1535,36.923 28.7299,36.923 C29.3137,36.923 29.7343,36.8563 30.0735,36.5616 C32.5549,31.1329 35.1707,25.7666 37.9185,20.4677 C38.8562,18.6033 39.2621,18.1029 41.1951,17.7434 L42.0142,17.5988 C42.4812,17.1299 42.3608,16.0309 41.8419,15.8196 C40.5538,15.9216 39.0341,15.9735 37.3273,15.9735 C35.8669,15.9735 34.4732,15.9216 32.5347,15.8196 C31.949,16.0309 31.949,17.2374 32.3067,17.5988 L33.2927,17.7897 C34.299,17.9954 34.7586,18.2493 34.7586,18.5069 C34.7586,18.8609 34.5807,19.5688 34.2174,20.4677 C33.2927,22.8084 32.3753,25.2899 30.9538,28.22 C29.6713,25.7848 28.0367,22.5044 26.9767,20.0729 C26.632,19.2186 26.5133,18.9054 26.5133,18.5069 C26.5133,18.2493 27.3232,17.9954 28.678,17.7434 L29.549,17.5988 C29.9716,17.3931 30.016,15.8808 29.3748,15.8196 C25.9237,15.9215 22.4713,15.9728 19.0187,15.9735 L7.20026,15.9735 C4.7428,15.9735 2.87469,15.9216 0.47654,15.8196 C-0.122071,16.0735 -0.122071,17.1855 0.283798,17.5988 L1.35129,17.8564 L1.35129,17.8564 Z" id="Shape"></path>
                <path d="M50.2249,17.532 C52.2061,17.532 53.3255,18.6347 53.3255,20.3082 C53.3255,20.816 53.2087,21.3275 52.9178,21.4721 C52.2636,21.8279 51.3295,21.9224 50.5122,21.9224 L48.3513,21.9224 C46.4683,21.9224 45.6603,21.8854 45.6603,21.1682 C45.6603,19.5447 47.7675,17.5302 50.2268,17.5302 L50.2249,17.532 Z M50.1638,36.8544 C53.6721,36.8544 58.0143,35.3847 60.4069,31.0869 C60.4069,30.2252 59.5192,29.8174 58.8835,29.912 C57.3026,32.249 55.0713,32.5436 53.4385,32.5436 C48.001,32.5436 45.184,28.8574 45.184,25.0638 C45.184,24.2557 45.3063,24.1557 46.6555,24.1557 L57.8772,24.1557 C59.7045,24.1557 59.9899,23.4477 59.9899,22.4877 C59.9899,18.5865 56.7096,15.1987 50.6234,15.1987 C43.3215,15.1987 37.9951,20.16 37.9951,26.5371 C37.9951,32.0507 42.2669,36.8544 50.1638,36.8544 L50.1638,36.8544 Z M74.9366,17.8563 C76.006,17.8563 76.9345,17.8934 77.7573,18.0435 C78.9286,18.2492 79.922,19.882 79.922,20.6789 C79.922,21.0866 79.922,21.5388 79.7478,22.1986 C79.4475,23.2105 77.4627,26.8503 76.6472,28.2199 C75.6409,26.6057 73.3113,22.0466 72.4922,20.2712 C72.1475,19.5261 71.964,18.9072 71.964,18.6032 C71.964,18.0435 73.0685,17.8563 74.9366,17.8563 L74.9366,17.8563 Z M61.6634,17.8563 C62.666,18.1028 63.2424,18.3085 64.0616,19.7689 C66.923,25.0378 69.8049,30.846 72.6052,36.5597 C72.961,36.8562 73.3688,36.9229 73.9544,36.9229 C74.5345,36.9229 74.9366,36.8562 75.2962,36.5615 C76.6491,34.0466 80.1518,27.297 81.677,24.6764 C83.4377,27.916 86.4659,33.828 87.6984,36.5615 C88.0505,36.8581 88.4582,36.9229 89.0401,36.9229 C89.6313,36.9229 90.0428,36.8562 90.3893,36.5615 C92.8737,31.1336 95.4907,25.7673 98.238,20.4676 C99.1739,18.6032 99.5779,18.1028 101.507,17.7433 L102.334,17.5987 C102.795,17.1299 102.673,16.0309 102.154,15.8196 C100.86,15.9215 99.3481,15.9734 97.6431,15.9734 C96.0445,15.9658 94.4463,15.9145 92.8505,15.8196 C92.2574,16.0309 92.2574,17.2373 92.617,17.5987 L93.6103,17.7896 C94.6074,17.9953 95.0707,18.2492 95.0707,18.5068 C95.0707,18.8608 94.8947,19.5688 94.55,20.4676 C93.6103,22.8083 92.6726,25.2899 91.2641,28.2199 C89.9816,25.7847 88.347,22.5044 87.2943,20.0729 C86.9385,19.2185 86.8218,18.9053 86.8218,18.5068 C86.8218,18.2492 87.6354,17.9953 88.9901,17.7433 L89.8611,17.5987 C90.2726,17.393 90.3337,15.8807 89.6869,15.8196 C85.947,15.9215 83.0114,15.9734 79.3308,15.9734 L67.5105,15.9734 C65.2684,15.9737 63.0266,15.9224 60.7868,15.8196 C60.2067,16.0735 60.2067,17.1855 60.6145,17.5987 L61.6634,17.8563 L61.6634,17.8563 Z" id="Shape"></path>
                <path d="M111.756,17.532 C115.079,17.532 116.719,21.7723 116.784,26.6872 C116.834,31.2426 115.717,34.5285 112.379,34.5285 C109.001,34.5285 107.06,30.6255 107.06,25.3214 C107.06,19.8134 109.178,17.5302 111.756,17.5302 L111.756,17.532 Z M111.756,36.8544 C118.943,36.8544 125.209,33.3665 125.209,25.97 C125.209,18.8386 118.997,15.1987 112.099,15.1987 C105.192,15.1987 98.5795,19.1926 98.6351,26.4333 C98.7037,33.4091 104.781,36.8544 111.756,36.8544 L111.756,36.8544 Z" id="Shape"></path>
                <path d="M135.179,19.4854 C135.54,19.4854 136.059,19.541 137.399,20.4973 C138.149,21.1089 138.854,21.4128 139.678,21.4128 C141.546,21.4128 143.428,20.4528 143.428,18.1233 C143.428,16.2125 141.789,15.1395 140.197,15.1395 C137.749,15.1395 136.059,16.8074 134.469,17.6636 C134.005,17.571 133.883,17.4171 133.883,17.0595 C133.883,16.6073 134.004,15.9049 134.111,14.8837 C133.883,14.5835 133.524,14.4222 133.073,14.4222 C131.251,15.449 127.217,16.8074 124.517,17.4727 C124.109,17.7693 124.109,18.6811 124.517,18.9869 L125.351,19.4428 C126.457,20.0507 126.457,20.6548 126.457,22.6823 L126.457,30.3179 C126.457,33.8576 126.222,34.3117 124.289,34.4711 L123.175,34.5637 C122.704,34.8677 122.704,36.039 123.236,36.3429 C125.537,36.2308 127.84,36.1789 130.143,36.1872 C132.886,36.1872 135.232,36.2317 138.044,36.341 C138.57,36.039 138.57,34.8677 138.098,34.5637 L136.226,34.4229 C134.295,34.2617 134.057,33.8558 134.057,30.3179 L134.057,22.5285 C134.057,20.6085 134.354,19.4854 135.18,19.4854" id="Path"></path>
                <path d="M158.138,34.397 L157.38,34.5545 C156.905,35.0086 157.02,36.0649 157.607,36.3151 C159.246,36.215 161.346,36.1669 164.813,36.1669 C168.205,36.1669 170.365,36.215 172.174,36.3151 C172.762,36.1205 172.882,34.9048 172.406,34.5545 L171.537,34.3951 C170.019,34.1449 168.909,33.8836 168.09,33.2368 C166.618,32.0748 161.468,25.1899 160.43,23.5719 C160.128,23.1679 160.004,22.8677 160.004,22.7102 C160.004,22.5619 160.065,22.3617 160.352,22.0504 C161.175,21.3517 162.068,20.5789 164.283,19.1129 C165.856,18.0603 167.096,17.5562 168.206,17.3486 L170.071,16.9928 C170.49,16.598 170.432,15.4675 169.834,15.2229 C166.39,15.6825 161.531,15.9308 158.777,15.9308 L157.38,15.9308 C156.796,16.1421 156.731,17.2467 157.257,17.7007 L158.725,17.912 C159.246,17.9528 159.83,18.1529 159.83,18.4124 C159.83,18.7163 159.548,19.2686 158.428,20.4251 L155.978,22.9196 C154.803,24.0779 153.575,24.3318 152.58,24.3318 C151.944,24.3318 151.755,24.1798 151.755,23.622 L151.755,7.74117 C151.755,4.54981 151.829,2.42224 151.944,0.352124 C151.714,0.0926642 151.291,0 150.943,0 C147.952,1.1027 144.392,2.32958 141.995,2.82255 C141.58,3.13391 141.58,4.04757 141.995,4.33483 L142.989,4.85375 C144.154,5.46348 144.154,6.01762 144.154,8.05252 L144.154,30.2994 C144.154,33.8391 143.919,34.245 141.805,34.4544 L140.693,34.5545 C140.231,34.851 140.231,36.0186 140.752,36.3151 C143.131,36.2091 145.513,36.1597 147.894,36.1669 C150.589,36.1669 153.043,36.215 154.924,36.3151 C155.443,36.0186 155.443,34.851 154.98,34.5545 L154.049,34.4544 C151.992,34.245 151.755,33.8373 151.755,30.2994 L151.755,27.3712 C151.755,26.4019 152.051,26.1554 152.455,26.1554 C153.043,26.1554 153.514,26.3593 153.931,26.9004 L158.078,32.3769 C158.547,32.9774 159.07,33.7854 159.07,34.0041 C159.07,34.1913 158.725,34.2858 158.138,34.3951" id="Path"></path>
            </g>
        </g>
    </g>
</svg>