<?xml version="1.0" encoding="UTF-8"?>
<svg width="120px" height="60px" viewBox="0 0 255 130" version="1.1" xmlns="http://www.w3.org/2000/svg" xmlns:xlink="http://www.w3.org/1999/xlink">
    <!-- Generator: Sketch 57.1 (83088) - https://sketch.com -->
    <title>weather</title>
    <desc>Created with Sketch.</desc>
    <g id="customers.mapbox.com-copy" stroke="none" stroke-width="1" fill="none" fill-rule="evenodd">
        <g id="weather" fill-rule="nonzero">
            <rect id="Rectangle-Copy-38" fill="#2E73E5" x="0" y="0" width="255" height="130"></rect>
            <g id="5c9121c41ad86f216ab5102e_The_Weather_Company-l" transform="translate(76.000000, 25.000000)" fill="#FFFFFF">
                <polygon id="polygon5" points="0 10 13 10 12.4032238 13.1708894 8.09569901 13.1708894 8.09569901 29 4.41123253 29 4.41123253 13.1708894 0 13.1708894"></polygon>
                <path d="M15,10.86432 L18.7795998,10 C18.9456281,10.7564515 19.0270781,12.0526677 19.0270781,13.3737928 L19.0270781,16.1269724 C19.0270781,16.5588685 18.9720589,17.1263919 18.9720589,17.2880891 C19.9384541,16.3972769 21.5386483,15.8037891 22.9728141,15.8037891 C24.7102325,15.8037891 26.1996332,16.6135416 26.6408652,17.7744472 C26.917687,18.5569687 27,18.7718613 27,20.3386986 L27,30 L23.3855656,30 L23.3855656,20.7152884 C23.3855656,19.3392791 23.0006473,18.8264288 21.9513998,18.8264288 C21.0414262,18.8264288 19.8547387,19.3667212 19.0270781,20.0944641 L19.0270781,30 L15.2754194,30 L15.2754194,14.0218481 C15.2754194,12.7258431 15.1659205,11.4318434 15,10.86432" id="path7"></path>
                <path d="M38.4216799,26.0622483 L39.8363365,28.1492853 C38.2310939,29.4003248 36.5445516,30 34.585166,30 C30.5852015,30 28,27.2879021 28,23.091297 C28,20.6920864 28.517168,19.1029777 29.7414515,17.7989237 C30.8844353,16.5732699 32.2717438,16 34.1224816,16 C35.7282562,16 37.2509222,16.5205613 38.1500071,17.4081459 C39.4291998,18.658064 40,20.4582111 40,23.2479956 L40,24.0551409 L31.9449489,24.0551409 L31.9449489,24.1599464 C31.9449489,26.2190488 33.0068459,27.3932174 34.8845062,27.3932174 C36.1354994,27.3934213 37.3059379,26.9498329 38.4216799,26.0622483 L38.4216799,26.0622483 Z M31.9998581,21.500761 L36.2179696,21.500761 L36.2179696,21.3445722 C36.2179696,20.3528958 36.1093218,19.8323345 35.7827398,19.3367511 C35.4292352,18.8162918 34.9118544,18.5545838 34.1774972,18.5545838 C32.7889117,18.5545838 31.9999645,19.5970318 31.9999645,21.4479504 L31.9999645,21.500761 L31.9998581,21.500761 Z" id="path9"></path>
                <path d="M0,33 L3.91375834,33 L5.50033607,40.4273122 C6.26689416,43.9506005 6.47877566,46.6332391 6.47877566,46.6332391 C6.5576754,45.9022945 6.87513572,43.2182781 7.42981232,40.6156661 L9.0697482,33 L13.1152474,33 L14.807404,41.4288631 C15.1516468,43.1909313 15.6007445,46.4161604 15.6007445,46.4161604 C15.6542061,45.820996 16.2891267,41.7284062 16.606587,40.154798 L18.1130241,33 L22,33 L17.5568999,52 L13.5129518,52 L11.8729125,44.3294282 C11.2379918,41.4030002 11.0262137,39.016195 11.0007756,38.85381 C11.0007756,38.85381 10.6298537,41.5111156 10.1004085,44.2760065 L8.59407476,52 L4.38953518,52 L0,33 Z" id="path11"></path>
                <path d="M32.4214811,49.0628632 L33.8361252,51.1490889 C32.2310032,52.4004981 30.5446887,53 28.5853204,53 C24.5853914,53 22,50.2876619 22,46.0916585 C22,43.6916119 22.5173762,42.102932 23.7415424,40.7983017 C24.8845161,39.5731972 26.2717059,39 28.1225337,39 C29.7284005,39 31.2509466,39.5204859 32.1499171,40.4082177 C33.4292048,41.6584034 34,43.4579285 34,46.2477533 L34,47.0549398 L25.9450204,47.0549398 L25.9450204,47.1604643 C25.9450204,49.218958 27.0069079,50.3931864 28.8844452,50.3931864 C30.1354273,50.3931864 31.3059617,49.950493 32.4214811,49.0628632 L32.4214811,49.0628632 Z M26.0000355,44.5002258 L30.2180032,44.5002258 L30.2180032,44.344029 C30.2180032,43.3529138 30.1093563,42.8323259 29.7834157,42.3369212 C29.429063,41.8164353 28.9121124,41.5538984 28.176059,41.5538984 C26.7889757,41.5538984 26.0001419,42.5963995 26.0001419,44.4480242 L26.0001419,44.5002258 L26.0000355,44.5002258 Z" id="path13"></path>
                <path d="M36.2926324,39.966022 C37.165661,39.3929907 37.5357763,39.2015173 38.4912599,38.8182498 C39.814787,38.2452185 40.9542406,38 42.1988346,38 C44.4763952,38 46.039104,38.8734908 46.5692607,40.4315632 C46.7553023,41.0045945 46.8068885,41.4419276 46.8068885,42.9451865 L46.7286806,47.6445133 L46.7286806,47.8898387 C46.7286806,49.3930976 46.9663084,49.9664494 48,50.7584144 L46.1192801,53 C45.2978376,52.6445133 44.5567785,52.0166684 44.2118348,51.3053745 C43.7085071,51.7970937 43.6548492,51.8523347 43.3904959,52.0423122 C42.7276447,52.5345657 41.7742328,52.8088471 40.6616082,52.8088471 C37.6428849,52.8088471 36,51.2240624 36,48.4369057 C36,45.1579229 38.1985239,43.6281654 42.5168458,43.6281654 C42.781199,43.6281654 42.9405153,43.6281654 43.3115629,43.6559461 L43.3115629,43.0813121 C43.3115629,41.5242013 43.0202771,41.0048082 41.7221287,41.0048082 C40.5826751,41.0048082 39.2576978,41.5780532 37.8015797,42.5898066 L36.2926324,39.966022 Z M43.2580085,46.1688215 L43.0993137,46.1688215 C40.636333,46.1688215 39.787958,46.6336147 39.787958,48.3005663 C39.787958,49.3930976 40.4508093,50.1299284 41.3505633,50.1299284 C42.0133109,50.1299284 42.6755406,49.7762581 43.2050757,49.1740571 L43.2580085,46.1688215 Z" id="path15"></path>
                <path d="M56.9208213,38.0823706 L56.035182,40.4421817 L53.7939266,40.4421817 L53.7939266,47.3602027 C53.7939266,49.0841099 54.1060556,49.5350688 55.3060658,49.5350688 C55.6188062,49.5350688 55.9317504,49.4545182 56.555397,49.2684329 L57,51.3904279 C55.9831096,51.813811 55.0709755,52 54.1587395,52 C52.3877665,52 50.9539908,51.2040316 50.562785,50.0121523 C50.354699,49.4293267 50.3283061,49.1633128 50.3283061,47.9169038 L50.3283061,40.4421817 L49,40.4421817 L49,38.1359673 L50.3283061,38.1359673 C50.3283061,36.8099407 50.3283061,35.9088522 50.458742,34.9010885 L54.002624,34 C53.87229,35.245476 53.7939266,36.7041986 53.7939266,38.0823706 L56.9208213,38.0823706 L56.9208213,38.0823706 Z" id="path17"></path>
                <path d="M57,32.8637095 L60.7796397,32 C60.9456651,32.756577 61.0272214,34.0506109 61.0272214,35.3734596 L61.0272214,38.1273452 C61.0272214,38.5585139 60.9720954,39.1260522 60.9720954,39.2884925 C61.9383653,38.3967069 63.5386386,37.803309 64.9727786,37.803309 C66.7102737,37.803309 68.1995397,38.6130828 68.6407638,39.7740191 C68.9175806,40.5565612 69,40.7714595 69,42.336966 L69,52 L65.3855227,52 L65.3855227,42.7148323 C65.3855227,41.3388923 65.0007192,40.8259229 63.9512748,40.8259229 C63.0413176,40.8259229 61.8548671,41.3662295 61.0272214,42.094836 L61.0272214,52 L57.2754144,52 L57.2754144,36.021532 C57.2754144,34.7261261 57.1660254,33.4299813 57,32.8637095" id="path19"></path>
                <path d="M82.4216799,48.0623057 L83.836443,50.1491083 C82.2312003,51.4003335 80.5447645,52 78.5852724,52 C74.5854143,52 72,49.2878396 72,45.0912957 C72,42.692222 72.517168,41.1028306 73.7414515,39.7987955 C74.8844353,38.5731596 76.2716373,38 78.1224816,38 C79.7282562,38 81.2509222,38.5204518 82.1501135,39.4080234 C83.4293062,40.6579233 84,42.4581461 84,45.2480939 L84,46.0565528 L75.9451617,46.0565528 L75.9451617,46.1600315 C75.9451617,48.2191039 77.0070587,49.3934592 78.8847191,49.3934592 C80.1357123,49.3933573 81.3061507,48.9499792 82.4216799,48.0623057 L82.4216799,48.0623057 Z M76.0002838,43.5005789 L80.2181825,43.5005789 L80.2181825,43.3443924 C80.2181825,42.3546675 80.1095346,41.8322786 79.7828462,41.3368045 C79.4294481,40.8161488 78.9121737,40.5547505 78.1776036,40.5547505 C76.7890182,40.5547505 76.0002838,41.5970813 76.0002838,43.4478711 L76.0002838,43.5005789 Z" id="path21"></path>
                <path d="M86,38.8555225 L89.0871828,38 C89.395881,38.5619557 89.5760304,39.176252 89.6268263,39.9508085 C90.1155732,39.2553374 90.9392713,38.534793 91.5810094,38.2140634 C91.8637564,38.0811749 92.3272563,38 92.7135062,38 C93.2269973,38 93.459049,38.0540121 94,38.2952383 L93.0482561,41.4469543 C92.7135062,41.2599491 92.430558,41.17961 92.0445093,41.17961 C91.2729147,41.17961 90.5785702,41.5537248 89.935625,42.3280724 L89.935625,52 L86.4886464,52 L86.4886464,42.8628654 C86.4886464,41.0189318 86.2826464,39.630079 86,38.8555225" id="path23"></path>
                <path d="M12.6120818,58.4480728 L10.9875861,60.9481108 C10.0853687,60.2631294 9.13040004,59.9207416 8.12378965,59.9207416 C6.91333561,59.9207416 5.72557569,60.5273041 5.08146608,61.4995125 C4.3847061,62.5539475 4.07495655,64.0797188 4.07495655,66.2107147 C4.07495655,68.7109585 4.28162436,70.1056201 4.82275309,71.1045855 C5.54503135,72.4462475 6.73218608,73.1580889 8.28032866,73.1580889 C9.25940351,73.1580889 10.1102818,72.8685978 10.9875861,72.2632702 C11.090567,72.1855718 11.2196713,72.0791609 11.3481705,71.973985 L13,74.2900165 C11.58076,75.4734 10.0592452,76 8.02080876,76 C5.54493048,76 3.63690956,75.1839089 2.16562442,73.4739254 C0.72237912,71.8164269 0,69.6054684 0,66.9210124 C0,64.6316351 0.386606977,62.8165786 1.21257216,61.2374989 C2.60568866,58.5789767 5.18444696,57 8.07295481,57 C9.85267829,57 11.633007,57.5800113 12.6120818,58.4480728" id="path25"></path>
                <path d="M20.9610804,61 C22.8534435,61 24.3299549,61.6570301 25.4711904,63.0222473 C26.5335732,64.282274 27,65.7536064 27,67.9345641 C27,70.2455718 26.4811737,71.8217865 25.3420666,73.1343058 C24.3300563,74.2908883 23.0088177,75 20.9610804,75 C17.3588912,75 15,72.2686409 15,68.0387274 C15,63.8108683 17.3850403,61 20.9610804,61 M21.0133786,63.5997681 C20.1834997,63.5997681 19.5100086,64.1255155 19.2251052,64.9673481 C18.9910809,65.6757407 18.8621598,66.6213257 18.8621598,67.9603481 C18.8621598,69.5105734 19.0174327,70.6657177 19.3023362,71.3489427 C19.6134901,72.0839411 20.3910708,72.4524162 21.0650687,72.4524162 C22.5684387,72.4524162 23.2163888,71.0866854 23.2163888,67.9071365 C23.2163888,66.095373 22.9824659,64.9130065 22.5160391,64.3087771 C22.1801551,63.8627445 21.6350783,63.5997681 21.0133786,63.5997681" id="path27"></path>
                <path d="M29,61.8863885 L32.2416446,61 C32.4819449,61.3754673 32.5887916,61.698077 32.7237117,62.3978353 C33.6613437,61.4842298 34.8122501,61 36.0707365,61 C37.1959787,61 38.1337155,61.3754673 38.8574446,62.1273475 C39.0456834,62.3162896 39.1248756,62.4229505 39.3930398,62.7998889 C40.6515262,61.5100806 41.7766637,61 43.2776501,61 C44.3487357,61 45.36556,61.3211385 45.9817092,61.8599072 C46.759595,62.5316079 47,63.3377119 47,65.2184108 L47,75 L43.5181599,75 L43.5181599,65.917959 C43.5181599,64.2784291 43.3298164,63.9556093 42.3929176,63.9556093 C41.7226118,63.9556093 40.785713,64.4122018 40.008351,65.11175 L40.008351,75 L36.6076934,75 L36.6076934,66.0502605 C36.6076934,64.3306562 36.3654029,63.9287076 35.3754998,63.9287076 C34.7054034,63.9287076 33.7954258,64.2785342 33.0181686,64.9757705 L33.0181686,75 L29.5091978,75 L29.5091978,65.4073529 C29.5091978,63.4178914 29.3752204,62.5587198 29,61.8863885" id="path29"></path>
                <path d="M50,61.56689 L53.173296,61 C53.3066769,61.4850925 53.3876022,61.8630894 53.4138821,62.2936855 C54.0273923,61.5394836 55.3867506,61 56.773223,61 C57.7336902,61 58.720333,61.3235004 59.467224,61.8361047 C60.9337876,62.8332745 62,64.6115254 62,67.7938251 C62,70.7579281 61.5469849,72.2940544 60.1068055,73.8038285 C59.1740782,74.8005766 57.9473707,75.3672557 56.4530673,75.3672557 C55.3867506,75.3672557 54.3744536,75.0969869 53.6000313,74.6384574 C53.654051,74.963539 53.654051,75.7722374 53.654051,75.7722374 L53.654051,80.083679 L50.2137848,81 L50.2137848,65.0442296 C50.2135762,63.2374128 50.1867749,62.7250194 50,61.56689 L50,61.56689 Z M53.6800181,71.7013392 C54.1606688,72.1053722 54.9337354,72.5100376 55.6528865,72.5100376 C57.4135345,72.5100376 58.1069271,71.2976225 58.1069271,68.1425183 C58.1069271,66.8226914 58.0010776,65.7709197 57.7604915,65.0965125 C57.494147,64.3423107 56.9335095,63.939121 56.0539676,63.939121 C55.1744258,63.939121 54.3204338,64.3151151 53.6800181,64.9897332 L53.6800181,71.7013392 Z" id="path31"></path>
                <path d="M64.2921145,62.9651672 C65.1658682,62.392777 65.5374336,62.200983 66.4913635,61.8188909 C67.8148906,61.2450048 68.9543442,61 70.1989382,61 C72.4764988,61 74.0392076,61.872636 74.5693642,63.4314564 C74.7555095,64.0047014 74.8069921,64.442355 74.8069921,65.9444385 L74.7286806,70.6437654 L74.7286806,70.8889839 C74.7286806,72.3921359 74.966412,72.9668768 76,73.7596965 L74.1194872,76 C73.2979412,75.6441928 72.5561569,75.0157068 72.2121455,74.3052677 C71.7086106,74.7969869 71.6550563,74.8522278 71.3905995,75.0433807 C70.7277483,75.5337109 69.7757866,75.8078855 68.6617118,75.8078855 C65.6428849,75.8078855 64,74.2237419 64,71.4365851 C64,68.1570681 66.1987311,66.6280586 70.5167422,66.6280586 C70.7813026,66.6280586 70.9399974,66.6280586 71.3115629,66.6549845 L71.3115629,66.0812053 C71.3115629,64.5238808 71.0202771,64.0047014 69.7221287,64.0047014 C68.5826751,64.0047014 67.259148,64.5791217 65.8015797,65.5887381 L64.2921145,62.9651672 Z M71.2581121,69.1686078 L71.0994173,69.1686078 C68.6365402,69.1686078 67.7882688,69.6327599 67.7882688,71.2997115 C67.7882688,72.3921359 68.4503949,73.1297147 69.3507704,73.1297147 C70.0136216,73.1297147 70.6757478,72.7754034 71.2045578,72.1746982 L71.2581121,69.1686078 Z" id="path33"></path>
                <path d="M77,61.9060382 L80.1020648,61 C80.4136068,61.558661 80.5975144,62.1450621 80.5975144,62.706643 C81.4046079,62.1202419 81.5613983,62.0124101 82.1360586,61.6922515 C82.8390669,61.3193242 83.7514689,61.1058505 84.533688,61.1058505 C86.0187114,61.1058505 87.3233953,61.9059339 87.7397361,63.0800918 C87.9222165,63.5854625 88,64.173115 88,65.0257587 L88,75 L84.5601935,75 L84.5601935,66.1191991 C84.5601935,64.5729482 84.2986043,64.1201377 83.3873237,64.1201377 C82.6829901,64.1201377 81.7704862,64.599854 80.9618635,65.3459172 L80.9618635,75 L77.4691479,75 L77.4691479,65.106789 C77.4691479,63.9326311 77.3109303,62.8124935 77,61.9060382" id="path35"></path>
                <path d="M91,61.4299219 L94.5130311,61 L96.7955588,69.0206118 C97.0255764,69.8556119 97.4870151,71.8735289 97.4870151,71.8735289 C97.4870151,71.8735289 97.7430024,70.3400636 97.8973166,69.6664421 C98.1026679,68.804914 98.1545071,68.6703792 98.4104943,67.755374 L100.384494,61.2142241 L104,61.2142241 L99.2315987,75.1847906 C98.3341895,77.8504327 97.6666975,79.0071373 96.7179505,79.7344464 C95.8462102,80.4066994 94.7172795,80.8386214 93.5385149,81 L92.3590485,78.6315346 C93.1030459,78.4152052 93.973984,78.0920269 94.487262,77.7150557 C94.8715937,77.4191423 95.1794201,77.0428027 95.4613771,76.5857212 C95.794371,76.0196855 95.8980494,75.7780912 96.2058758,74.9699349 L95.3330325,74.9699349 C95.1288845,74.3241047 95.0252061,74.0553509 94.7951886,73.354675 C94.5393017,72.5196749 94.1283985,71.147483 94.1037323,71.0931638 L91,61.4299219 Z" id="path37"></path>
                <path d="M70,0 C69.4685369,1.35412516 68.9621182,2.60828275 68.4818917,3.87135665 C67.2010792,7.23920406 66.8765455,10.7341876 67.1499469,14.3015505 C67.3340232,16.7186046 67.4999424,19.1460437 66.7174092,21.487991 C65.2754776,25.8024358 62.253766,28.2764494 57.7750962,28.8767793 C53.1808047,29.4937879 49.4907206,27.7826956 46.9341044,23.989278 C43.1264159,18.3427366 44.7815379,9.41960885 53.3211577,7.06801092 C55.4364707,6.48519898 57.6200296,6.15477104 59.7561085,5.63804469 C63.3380843,4.76980594 66.3901623,2.86696062 69.2402154,0.592567434 C69.4637367,0.41308737 69.6920582,0.239271786 70,0" id="path39"></path>
            </g>
        </g>
    </g>
</svg>