<?xml version="1.0" encoding="UTF-8"?>
<svg width="120px" height="60px" viewBox="0 0 255 130" version="1.1" xmlns="http://www.w3.org/2000/svg" xmlns:xlink="http://www.w3.org/1999/xlink">
    <!-- Generator: Sketch 57.1 (83088) - https://sketch.com -->
    <title>facebook copy 8</title>
    <desc>Created with Sketch.</desc>
    <g id="customers.mapbox.com-copy" stroke="none" stroke-width="1" fill="none" fill-rule="evenodd">
        <g id="facebook-copy-8" fill-rule="nonzero">
            <rect id="Rectangle-Copy-50" fill="#F9FBFC" x="0" y="0" width="255" height="130"></rect>
            <g id="5d5146aac90ca767fad2f24c_Facebook" transform="translate(42.000000, 48.000000)" fill="#8A989E">
                <path d="M88.6328547,16.3585976 C87.2159878,16.3585976 86.1946339,16.8192226 85.1593206,17.2886911 L85.1593206,27.9080602 C86.151205,28.001877 86.719658,28.001877 87.6611338,28.001877 C91.0617694,28.001877 91.5278542,26.4577448 91.5278542,24.3014964 L91.5278542,19.2292376 C91.5278542,17.6374281 90.9950751,16.3585976 88.6328547,16.3585976 Z M66.0494544,15.7791635 C63.6903361,15.7791635 63.1513528,17.0637615 63.1513528,18.654033 L63.1513528,19.5475995 L68.9440661,19.5475995 L68.9440661,18.654033 C68.9440661,17.0637615 68.4058584,15.7791635 66.0494544,15.7791635 Z M22.3010717,26.833012 C22.3010717,28.0910798 22.8997696,28.7447215 24.2212482,28.7447215 C25.6388905,28.7447215 26.4779984,28.2864034 27.5125361,27.8157814 L27.5125361,25.2965698 L24.4128005,25.2965698 C22.9459128,25.2965698 22.3010717,25.5672543 22.3010717,26.833012 Z M110.600884,16.3585976 C108.237888,16.3585976 107.418943,17.6374281 107.418943,19.2292377 L107.418943,25.039727 C107.418943,26.6361506 108.237888,27.9188261 110.600884,27.9188261 C112.957675,27.9188261 113.782824,26.6361506 113.782824,25.039727 L113.782824,19.2292377 C113.782824,17.6374281 112.957675,16.3585976 110.600884,16.3585976 Z M10.7199103,33.3478964 L3.77322983,33.3478964 L3.77322983,16.674268 L0.301634528,16.674268 L0.301634528,10.9287583 L3.77322983,10.9287583 L3.77322983,7.47906859 C3.77322983,2.7916893 5.73256988,0.00448457792 11.3007714,0.00448457792 L15.9368033,0.00448457792 L15.9368033,5.75114781 L13.0390895,5.75114781 C10.8711358,5.75114781 10.7284409,6.55397346 10.7284409,8.05273528 L10.7199102,10.9287584 L15.969375,10.9287584 L15.3551666,16.6742681 L10.7199102,16.6742681 L10.7199102,33.3478964 L10.7199103,33.3478964 Z M34.4619308,33.3909598 L28.6723196,33.3909598 L28.4214403,31.9391065 C25.7777078,33.3909598 23.4182017,33.6262708 21.8617421,33.6262708 C17.6157945,33.6262708 15.3551666,30.8133049 15.3551666,26.9237528 C15.3551666,22.3344198 17.9923073,20.6964708 22.7105438,20.6964708 L27.512536,20.6964708 L27.512536,19.7044736 C27.512536,17.3625141 27.2418811,16.674268 23.6089786,16.674268 L17.6689173,16.674268 L18.2497785,10.9287583 L24.7427823,10.9287583 C32.7143065,10.9287583 34.4619308,13.4256692 34.4619308,19.750613 L34.4619308,33.3909598 L34.4619308,33.3909598 Z M54.1507194,17.0956746 C50.5476742,16.4835584 49.5131365,16.3489851 47.7794715,16.3489851 C44.6653889,16.3489851 43.7243008,17.0303104 43.7243008,19.6521822 L43.7243008,24.6121685 C43.7243008,27.2344248 44.6653889,27.9188261 47.7794715,27.9188261 C49.5131365,27.9188261 50.5476742,27.7819458 54.1507194,27.1667537 L54.1507194,32.7711538 C50.9947589,33.4724728 48.9388672,33.6570304 47.2009369,33.6570304 C39.7424163,33.6570304 36.7776203,29.7674784 36.7776203,24.1492364 L36.7776203,20.1243422 C36.7776203,14.5011019 39.7424162,10.6050134 47.2009369,10.6050134 C48.9388673,10.6050134 50.994759,10.79034 54.1507194,11.494735 L54.1507194,17.0956746 L54.1507194,17.0956746 Z M75.8907467,24.1492365 L63.1513528,24.1492365 L63.1513528,24.6121686 C63.1513528,27.2344249 64.0932165,27.9188261 67.2065236,27.9188261 C70.0053592,27.9188261 71.7134322,27.7819459 75.3098855,27.1667538 L75.3098855,32.7711538 C71.8413923,33.4724728 70.0340533,33.6570305 66.6307034,33.6570305 C59.1717949,33.6570305 56.2054479,29.7674784 56.2054479,24.1492365 L56.2054479,19.5475996 C56.2054479,14.6318302 58.406361,10.6050135 66.0494545,10.6050135 C73.6925479,10.6050135 75.8907467,14.5849218 75.8907467,19.5475996 L75.8907467,24.1492365 L75.8907467,24.1492365 Z M98.4733715,24.2553571 C98.4733715,29.6859654 96.9083811,33.6462645 87.4261526,33.6462645 C84.0022515,33.6462645 81.9936662,33.3478964 78.214579,32.7711538 L78.214579,1.72971395 L85.1593206,0.580458171 L85.1593206,11.4385987 C86.6599432,10.8856949 88.6026097,10.6050134 90.3707851,10.6050134 C97.3163023,10.6050134 98.4733715,13.6925087 98.4733715,18.654033 L98.4733715,24.2553571 Z M120.735321,24.3737816 C120.735321,29.0584695 118.784899,33.6016631 110.624149,33.6016631 C102.459521,33.6016631 100.472651,29.0584695 100.472651,24.3737816 L100.472651,19.8505817 C100.472651,15.1635869 102.459521,10.6196243 110.624149,10.6196243 C118.784899,10.6196243 120.735321,15.1635869 120.735321,19.8505817 L120.735321,24.3737816 Z M142.981759,24.3737816 C142.981759,29.0584695 141.029011,33.6016631 132.869812,33.6016631 C124.705185,33.6016631 122.718314,29.0584695 122.718314,24.3737816 L122.718314,19.8505817 C122.718314,15.1635869 124.705185,10.6196243 132.869812,10.6196243 C141.029011,10.6196243 142.981759,15.1635869 142.981759,19.8505817 L142.981759,24.3737816 Z M165.812161,33.3478964 L158.284232,33.3478964 L151.918025,22.8096557 L151.918025,33.3478964 L144.970957,33.3478964 L144.970957,1.72971395 L151.918025,0.580458171 L151.918025,20.9348578 L158.284232,10.9287583 L165.812161,10.9287583 L158.861991,21.8484181 L165.812161,33.3478964 Z M132.846547,16.3585976 C130.487429,16.3585976 129.668484,17.6374281 129.668484,19.2292377 L129.668484,25.039727 C129.668484,26.6361506 130.487429,27.9188261 132.846547,27.9188261 C135.202563,27.9188261 136.036242,26.6361506 136.036242,25.039727 L136.036242,19.2292377 C136.036242,17.6374281 135.202563,16.3585976 132.846547,16.3585976 Z" id="Shape"></path>
                <path d="M169.777372,29.4152809 C170.94685,29.4152809 171.87902,30.3611388 171.87902,31.5423076 C171.87902,32.7419322 170.94685,33.6770242 169.768842,33.6770242 C168.597038,33.6770242 167.646256,32.7419322 167.646256,31.5423076 C167.646256,30.3611388 168.597038,29.4152809 169.768842,29.4152809 L169.777372,29.4152809 Z M169.768842,29.7459465 C168.82659,29.7459465 168.054952,30.5503103 168.054952,31.5423075 C168.054952,32.5527605 168.82659,33.3463583 169.777372,33.3463583 C170.72893,33.3555863 171.488935,32.5527605 171.488935,31.5515354 C171.488935,30.5503102 170.72893,29.7459465 169.777372,29.7459465 L169.768842,29.7459465 L169.768842,29.7459465 Z M169.368676,32.7803818 L168.987122,32.7803818 L168.987122,30.4072781 C169.187205,30.3795945 169.377982,30.3519108 169.663372,30.3519108 C170.025537,30.3519108 170.26207,30.4272719 170.407091,30.5303166 C170.547459,30.6348992 170.62346,30.7948492 170.62346,31.0209323 C170.62346,31.3346802 170.415622,31.5223139 170.158926,31.5992129 L170.158926,31.6176686 C170.36754,31.6561181 170.510235,31.8437517 170.558317,32.1928733 C170.614154,32.5619885 170.671542,32.7034827 170.709542,32.7803818 L170.310152,32.7803818 C170.253539,32.7034828 170.196151,32.4866275 170.148069,32.1744176 C170.092232,31.8729735 169.93868,31.7591629 169.633126,31.7591629 L169.368676,31.7591629 L169.368676,32.7803818 L169.368676,32.7803818 Z M169.368676,31.4669465 L169.644759,31.4669465 C169.957292,31.4669465 170.223294,31.353136 170.223294,31.0593818 C170.223294,30.8517544 170.072068,30.6441271 169.644759,30.6441271 C169.519901,30.6441271 169.433819,30.653355 169.368676,30.6625828 L169.368676,31.4669465 Z" id="Shape"></path>
            </g>
        </g>
    </g>
</svg>