<?xml version="1.0" encoding="UTF-8"?>
<svg width="120px" height="60px" viewBox="0 0 255 130" version="1.1" xmlns="http://www.w3.org/2000/svg" xmlns:xlink="http://www.w3.org/1999/xlink">
    <!-- Generator: Sketch 57.1 (83088) - https://sketch.com -->
    <title>snap</title>
    <desc>Created with Sketch.</desc>
    <g id="customers.mapbox.com-copy" stroke="none" stroke-width="1" fill="none" fill-rule="evenodd">
        <g id="snap" fill-rule="nonzero">
            <rect id="Rectangle-Copy-22" fill="#FFFC00" x="0" y="0" width="255" height="130"></rect>
            <g id="5c9121c41ad86f38ffb5102d_snap-l" transform="translate(54.000000, 48.000000)" fill="#201F26">
                <path d="M0.426990677,25.73328 C0.404057358,23.4205689 0.205847955,20.7471143 0.00436236353,18.7029017 C-0.0409080088,18.254967 0.271033999,17.850006 0.713657169,17.7821001 L0.746419054,17.7771584 C1.17577147,17.7104628 1.58586623,17.9806441 1.69651371,18.4031058 C1.94369556,19.432634 2.35410248,20.4154285 2.91197964,21.3137615 C3.41651266,22.1110209 5.18237825,24.8635425 8.89102361,24.8635425 C11.5938791,24.8635425 13.5759731,22.9428721 13.5759731,20.5148549 C13.5759731,18.2713274 11.7740695,17.3653508 8.24397638,16.0245055 C7.20051035,15.5896367 6.11936816,15.1926543 5.07426403,14.7215465 C3.6327411,14.031357 0.245162217,12.4384855 0.245162217,8.01731974 C0.245162217,3.09374882 4.1733122,0.194623757 9.18096629,0.194623757 C10.3964322,0.194623757 12.1262597,0.365935693 13.8593634,1.16648955 C14.2426775,1.34274317 14.6947915,1.20602307 14.9208485,0.850221357 L15.207515,0.395585836 C15.3578456,0.156010103 15.6171775,0.00770022805 15.8987908,-9.04165713e-13 C16.3513772,-0.0106753315 16.7330919,0.33695663 16.7669807,0.790921072 C16.9261633,2.85327754 17.1545345,4.90964271 17.4517041,6.95650353 C17.5772623,7.26465423 17.5130672,7.61810203 17.2872925,7.86172806 C17.0615177,8.10535409 16.7154233,8.19463607 16.4009008,8.09039051 C16.0863783,7.98614495 15.8609063,7.70742256 15.8234384,7.37654721 C15.3713244,6.17571643 15.1157817,5.61401095 14.6194392,4.86616846 C13.4318208,3.23705785 11.8461456,2.11529411 9.86568968,2.11529411 C7.30698648,2.11529411 5.7950255,4.21386533 5.7950255,5.9171013 C5.7950255,7.87236349 7.52321492,8.70586195 8.28001446,9.06825258 C9.82965161,9.82927291 11.4497268,10.3366198 13.0714401,10.9889229 C15.6645433,12.0036167 19.2306744,13.5618964 19.2306744,18.3438056 C19.2306744,23.0515893 15.4843529,27 9.54134702,27 C6.58786311,27 4.66310238,26.0610788 3.54592211,25.3478282 C3.35448151,25.2267578 3.12265475,25.1882201 2.90265125,25.240894 C2.68264775,25.2935679 2.49296558,25.4330246 2.37632282,25.6278573 L2.05689444,26.1582654 C1.9147444,26.3917451 1.6698199,26.5424602 1.39838056,26.563484 L1.33777107,26.5684257 C1.10478473,26.5876464 0.874339132,26.5085991 0.701603198,26.3502078 C0.528867265,26.1918165 0.429391563,25.9683405 0.426990677,25.73328 L0.426990677,25.73328 Z M20.0218668,25.525729 C20.0218668,25.1649856 20.2790548,24.8586008 20.6296069,24.7993005 C21.1734542,24.7087029 21.8319681,24.4731489 21.9318918,23.7780178 C22.0400061,22.9428721 22.0400061,20.7701756 22.0400061,20.2265896 C22.0400061,18.9582224 22.003968,16.894243 22.003968,15.6258758 C22.003968,13.8073337 21.3978731,13.308223 20.5460641,13.0660802 C20.2342533,12.9743127 20.0204753,12.6861183 20.0218668,12.3594184 L20.0218668,12.2737625 C20.0218668,11.913019 20.2806928,11.6099287 20.6328831,11.5489812 C22.4265963,11.232713 25.1392804,10.4618093 26.5627843,9.96764024 C26.748022,9.90309664 26.9512837,9.91612191 27.1268755,10.0037879 C27.3024673,10.091454 27.4356552,10.2464045 27.496498,10.4338064 C27.5259837,10.5293457 27.5538313,10.6199434 27.5784027,10.7138355 C27.6411145,10.9339431 27.8020833,11.1121888 28.0139311,11.1961094 C28.2257788,11.28003 28.464394,11.2600741 28.6595449,11.1421153 C30.0191631,10.3481504 31.3083433,9.75844201 33.2068945,9.75844201 C34.5763413,9.75844201 35.945788,10.1208326 37.0629683,10.9164448 C38.8173672,12.141984 39.1105861,14.0132375 39.2580146,15.9948554 L39.2580146,19.1756568 C39.2580146,19.7192427 39.1875765,22.5442424 39.1875765,23.1619537 C39.1875765,24.0778137 39.4349288,24.6362247 40.6258233,24.8586008 C40.9661434,24.9289158 41.2088219,25.2324003 41.2041392,25.5817348 C41.2044987,25.7851462 41.1210398,25.979632 40.9735729,26.1188679 C40.8261059,26.2581038 40.6278314,26.3296263 40.4259758,26.3163995 C39.4054431,26.2472158 37.8639964,26.2027406 35.3315027,26.2027406 C33.9030845,26.2027406 33.1151612,26.2422741 32.3829331,26.3065161 C32.1782238,26.325011 31.9752095,26.256138 31.8234797,26.1167205 C31.6717499,25.977303 31.5852762,25.7801788 31.5851812,25.5734987 L31.5851812,25.4186591 C31.5851812,25.0875658 31.8063239,24.7943588 32.1257523,24.7103501 C33.1790469,24.423732 33.3100944,23.9180324 33.2789706,21.7123912 L33.2068945,16.0607446 C33.1708564,14.3229168 33.0987803,12.3297683 30.7563055,12.3297683 C29.7816394,12.3297683 29.026478,12.6888645 28.2991641,13.2406866 C28.1046928,13.3842383 27.9921708,13.6142271 27.9977548,13.8567506 C28.0550881,15.6719983 28.0550881,20.8245342 28.0550881,22.4355253 C28.0550881,24.0975805 28.3417546,24.5571577 29.2214112,24.7910644 C29.5359253,24.8734259 29.7488775,25.1699273 29.7488775,25.4977261 L29.7488775,25.5932655 C29.7492751,25.7968078 29.665866,25.9914357 29.5184591,26.130927 C29.3710522,26.2704182 29.1727991,26.3423276 28.9707828,26.3295773 C27.7471264,26.2521575 26.1745559,26.2027406 23.2276244,26.2027406 C22.0940632,26.2027406 21.4355493,26.2389797 20.8212639,26.29828 C20.615883,26.3178175 20.4118607,26.2491298 20.2595803,26.1091793 C20.1072999,25.9692288 20.020957,25.7710617 20.0218668,25.5636153 L20.0218668,25.525729 L20.0218668,25.525729 Z M51.4012126,19.4935722 C51.3999529,19.2661851 51.2942909,19.0521372 51.1149363,18.9136505 C50.9355817,18.7751637 50.7026581,18.7277762 50.4838744,18.7852632 C49.2684085,19.0949425 47.6548857,19.8081932 47.6548857,21.7123912 C47.6548857,22.6908459 48.1594187,23.7763706 49.5288655,23.7763706 C50.2266936,23.7763706 50.6427696,23.5638779 51.0801407,23.2739654 C51.281686,23.1374913 51.4021459,22.9088243 51.4012126,22.6644902 L51.4012126,19.4935722 L51.4012126,19.4935722 Z M59.7260021,23.6841257 C59.8868358,23.8138878 59.9858047,24.0058281 59.9985896,24.2127815 C60.0113745,24.4197349 59.9367901,24.6225166 59.793164,24.7712976 C58.0616984,26.5338339 56.3449756,26.89293 55.3997952,26.89293 C54.4275377,26.8811678 53.4831931,26.5644388 52.6985778,25.9869535 C52.4483838,25.7848212 52.2239117,25.5524582 52.0302354,25.2951168 C51.8009361,24.9894649 51.3747706,24.9158769 51.0572074,25.1270993 C50.0661604,25.7744608 48.0201807,26.9275219 45.7465059,26.9275219 C42.4310031,26.9275219 41.6398036,24.6823472 41.6398036,23.3431491 C41.6398036,19.2036597 47.974314,17.4724208 50.8426171,16.9551905 C51.1875649,16.8916517 51.4383041,16.5896408 51.4388834,16.2369982 C51.4421595,15.1168817 51.4437976,13.7990976 51.293093,13.3444621 C50.8606361,12.0760948 49.4207513,12.0760948 49.2405609,12.0760948 C48.0513045,12.0760948 47.4026192,12.8008761 47.1863907,13.5981355 C47.0782765,14.0692433 47.0782765,14.5765902 46.9701623,15.047698 C46.6818577,16.2781789 45.6727916,16.7492868 44.7734779,16.7492868 C43.6562976,16.7492868 42.6111935,16.0245055 42.6111935,14.6853074 C42.6111935,12.0036167 47.5467714,9.82927291 52.0138544,9.82927291 C55.1114906,9.82927291 57.3802512,10.8439667 57.3802512,13.8518089 L57.3098131,21.9298256 C57.273775,22.5458897 57.2360989,23.9559187 58.1730888,23.9559187 C58.4056982,23.9559187 58.6252028,23.8340237 58.8316027,23.6725951 C59.0969307,23.4692524 59.4659454,23.4740097 59.7260021,23.6841257 L59.7260021,23.6841257 Z" id="Shape"></path>
                <path d="M69.7326407,24.6999419 C72.4517217,24.6999419 73.4427574,20.958292 73.4427574,18.4886378 C73.4427574,15.8719607 72.3397497,12.3847099 69.6223399,12.3847099 C67.1589561,12.3847099 67.1589561,14.8923588 67.1589561,15.6539043 C67.1589561,16.4897873 67.1973942,20.5585219 67.1973942,21.4670903 C67.1973942,22.6300579 67.1973942,24.6999419 69.7326407,24.6999419 L69.7326407,24.6999419 Z M61.0957563,16.0900172 C61.1626052,13.3147536 60.7615115,12.6605844 59.5080937,12.3186322 C59.2039795,12.2293731 58.996622,11.9515913 59,11.6380319 L59,11.4563182 C58.9985499,11.1027084 59.2663403,10.8045641 59.6217369,10.7641543 C62.1035042,10.5014954 64.7289967,9.83245864 66.0208527,9.4855507 C66.2073941,9.43456941 66.4069824,9.46256311 66.5718126,9.56282678 C66.7366427,9.66309046 66.8518677,9.82659291 66.889889,10.0141723 C66.9283272,10.1826705 66.9667653,10.3891633 67.0135596,10.6485183 C67.0526697,10.8765261 67.2038825,11.0704026 67.4170104,11.1657999 C67.6301383,11.2611972 67.8772984,11.2456347 68.0764579,11.1242777 C69.518724,10.2107535 70.9409354,9.73334208 72.7458571,9.73334208 C77.1929835,9.73334208 79.9488315,13.5113348 79.9488315,17.5073839 C79.9488315,22.9918333 76.016442,26.8078207 71.4239191,26.8078207 C70.0150775,26.8078207 68.9889461,26.452653 68.278676,26.0743582 C68.0606943,25.9561284 67.7958354,25.9600933 67.5815758,26.0847939 C67.3673162,26.2094945 67.2353182,26.436503 67.2341611,26.6822731 L67.2341611,30.8749033 C67.2341611,32.2807065 67.3210648,33.3643808 68.8418784,33.61878 C69.1710136,33.6833278 69.4065406,33.9710389 69.4017384,34.3026842 C69.4017917,34.49047 69.3251984,34.6703353 69.1893003,34.801556 C69.0534022,34.9327767 68.8696939,35.0042539 68.6797697,35 C66.8629777,34.9500575 65.0456937,34.9197701 63.2282378,34.9089471 C61.8461357,34.9089471 60.952031,34.9337263 59.7754895,34.9832846 C59.5833019,34.9922993 59.3957316,34.9233083 59.2562546,34.7923027 C59.1167777,34.6612971 59.0375042,34.4796515 59.0368086,34.2894687 L59.0368086,34.1986118 C59.0368086,33.8616155 59.2741224,33.5593101 59.6117096,33.503144 C60.9787706,33.271872 61.0957563,32.5284979 61.0957563,31.4927299 C61.1325232,30.8022179 61.1325232,28.6596483 61.1325232,27.8601081 L61.0957563,16.0900172 L61.0957563,16.0900172 Z M99.1829458,26.5897643 C97.6905429,26.4807361 96.7145483,26.4807361 92.8055559,26.4807361 C90.6663895,26.4807361 89.8123941,26.5055152 88.5606475,26.5930682 C88.1180743,26.6139751 87.7353533,26.2910912 87.6867147,25.8557715 C87.638076,25.4204518 87.9402904,25.0227951 88.3768129,24.9477333 C90.4374318,24.6619473 90.5260067,23.9268328 90.5260067,19.3228688 L90.5260067,7.77083429 C90.4892398,5.01043822 90.4541441,4.17455527 90.1951044,3.66575695 C89.9176812,3.02149934 89.4814918,2.86952062 88.3584295,2.68450305 C87.9554977,2.61828815 87.660046,2.273845 87.6598579,1.87009536 C87.6598579,1.36129704 88.0475819,0.989609957 88.518867,1.0028255 C90.5844995,1.0573396 92.6518033,1.08542263 94.7157647,1.08542263 C96.7880821,1.08542263 98.116705,1.04082018 99.2564796,1.0028255 C99.7165908,0.965419447 100.120262,1.3037864 100.158105,1.75858923 C100.195947,2.21339207 99.8536312,2.61240621 99.39352,2.64981226 C97.2159154,2.9190789 97.2159154,3.57159622 97.2159154,8.38866082 L97.2526823,19.6499534 C97.3262162,23.4659408 97.3629831,23.6839973 97.8041862,24.2638291 C98.1183762,24.6305604 98.6113872,24.8238376 99.3667804,24.9246061 C99.7776035,24.983698 100.082239,25.3319574 100.082064,25.7423177 C100.086824,25.9757872 99.9921742,26.200501 99.8212004,26.361649 C99.6502266,26.5227971 99.4186468,26.6055648 99.1829458,26.5897643 L99.1829458,26.5897643 Z M100.349453,25.8001357 C100.349453,25.4383603 100.611842,25.131099 100.969484,25.071629 C101.52433,24.9807722 102.196162,24.7445444 102.298107,24.0474246 C102.408408,23.2098897 102.408408,21.0309775 102.408408,20.4858364 C102.408408,19.2138406 102.371641,17.1439565 102.371641,15.8719607 C102.371641,14.0482161 101.753288,13.5476775 100.884252,13.304842 C100.566135,13.212812 100.348033,12.9237931 100.349453,12.5961586 L100.349453,12.5102576 C100.349453,12.1484821 100.611842,11.8445247 100.972826,11.7834028 C102.802816,11.4662299 105.568692,10.6931207 107.022656,10.197538 C107.21164,10.1328097 107.419013,10.1458722 107.598156,10.2337891 C107.777299,10.3217059 107.913181,10.4770997 107.975254,10.6650377 C108.005336,10.7608504 108.033747,10.8517072 108.058815,10.9458679 C108.122937,11.1661039 108.286876,11.3444279 108.502547,11.4285365 C108.718218,11.512645 108.961173,11.4930035 109.160152,11.375373 C110.547267,10.5791367 111.86252,9.98774124 113.80114,9.98774124 C115.196612,9.98774124 116.593755,10.3511686 117.73353,11.1490569 C119.525081,12.3781022 119.825902,14.254709 119.972969,16.2419959 C119.976312,16.2618192 119.976312,16.2816425 119.976312,16.3014658 L119.976312,19.431897 C119.976312,19.9770381 119.902778,22.8101196 119.902778,23.4295981 C119.902778,24.3480782 120.153462,24.9080867 121.370112,25.131099 C121.717315,25.2016151 121.964902,25.5059678 121.960124,25.8563018 C121.960523,26.0606019 121.875149,26.2559219 121.724325,26.3956099 C121.573501,26.5352979 121.370769,26.6068109 121.164552,26.5930682 C120.125051,26.5236866 118.550758,26.4790841 115.968717,26.4790841 C114.509739,26.4790841 113.707551,26.5187307 112.960514,26.5831565 C112.751665,26.6017043 112.544545,26.5326343 112.389746,26.3928179 C112.234948,26.2530016 112.146725,26.0553134 112.146628,25.848042 L112.146628,25.6927594 C112.146628,25.360719 112.372244,25.0666732 112.698132,24.9824241 C113.772729,24.6949861 113.906427,24.1878397 113.874674,21.9758886 L113.80114,16.3080736 C113.762702,14.5652742 113.690839,12.5664236 111.300989,12.5664236 C110.306611,12.5664236 109.534506,12.9265471 108.792482,13.4799479 C108.594709,13.6242682 108.480564,13.8548561 108.486648,14.0977744 C108.545141,15.9182151 108.545141,21.0854916 108.545141,22.7010914 C108.545141,24.3679015 108.835934,24.8287935 109.735053,25.0633693 C110.055928,25.1459664 110.273187,25.4433161 110.273187,25.7720527 L110.273187,25.8678654 C110.273592,26.07199 110.188496,26.2671747 110.038108,26.407065 C109.88772,26.5469554 109.685457,26.6190704 109.479355,26.6062837 C108.230951,26.5286424 106.626576,26.4790841 103.620045,26.4790841 C102.463558,26.4790841 101.791726,26.5154269 101.165017,26.5748968 C100.955483,26.5944902 100.747334,26.525606 100.591974,26.3852552 C100.436614,26.2449043 100.348524,26.0461702 100.349453,25.8381304 L100.349453,25.8001357 L100.349453,25.8001357 Z M138.582046,22.6383176 C139.043304,22.9687061 139.10681,23.6360909 138.702374,24.0325571 C136.675856,26.0217066 133.942453,27.1482257 131.086607,27.1712481 C125.830609,27.1712481 121.971753,23.5733171 121.971753,18.6323568 C121.971753,13.4386493 126.455646,10.0967695 131.932247,10.0967695 C135.533734,10.0967695 138.951386,11.6578552 138.951386,14.2745323 C138.951386,15.5085334 137.886817,16.5624727 136.636741,16.5624727 C136.085238,16.5624727 135.423433,16.3080736 135.018997,15.9083035 C134.688095,15.6175616 134.614561,15.4358479 133.915989,13.8747622 C133.585087,13.1842502 132.849748,11.9485971 131.711645,11.9485971 C129.579164,11.9485971 128.990893,15.5448761 128.990893,17.3256702 C128.990893,21.4307476 131.343976,24.1911436 133.915989,24.1911436 C135.28305,24.1911436 136.414469,23.5700132 137.418874,22.6977875 C137.744866,22.4116404 138.227927,22.3869428 138.582046,22.6383176 L138.582046,22.6383176 Z M143.657552,20.6312073 C145.459132,20.6312073 147,22.0485741 147,23.9367445 C147,25.7902241 145.459132,27.2075908 143.694319,27.2075908 C141.887799,27.2259457 140.407323,25.7950695 140.385296,24.0094299 C140.385296,21.7578322 142.150109,20.6312073 143.657552,20.6312073 L143.657552,20.6312073 Z" id="Shape"></path>
            </g>
        </g>
    </g>
</svg>