<?xml version="1.0" encoding="UTF-8"?>
<svg width="120px" height="60px" viewBox="0 0 255 130" version="1.1" xmlns="http://www.w3.org/2000/svg" xmlns:xlink="http://www.w3.org/1999/xlink">
    <!-- Generator: Sketch 57.1 (83088) - https://sketch.com -->
    <title>washington</title>
    <desc>Created with Sketch.</desc>
    <g id="customers.mapbox.com-copy" stroke="none" stroke-width="1" fill="none" fill-rule="evenodd">
        <g id="washington" fill-rule="nonzero">
            <rect id="Rectangle-Copy-40" fill="#080808" x="0" y="0" width="255" height="130"></rect>
            <g id="5d4d2f735c89806de8c4fa4f_washington-post" transform="translate(24.000000, 49.000000)" fill="#FFFFFF">
                <path d="M11.9669914,10.2294004 L11.9669914,21.4969509 C13.4926294,20.6748008 14.560982,19.2433508 15.0795998,17.6292007 L15.2018131,17.6904007 C14.8658391,21.7102509 12.1194199,25.729651 7.84691176,25.729651 C3.5437375,25.729651 0.369796991,22.5324009 0.369796991,17.4159007 C0.369796991,13.5792005 2.87224029,11.1730504 6.0768469,9.01080036 C5.61911037,8.88885035 5.13070777,8.82810035 4.64230515,8.82810035 C2.44471889,8.82810035 1.16305664,10.3203004 1.16305664,11.8431005 L0.979962024,11.8431005 C0.949295936,11.6298005 0.949295936,11.4169505 0.949295936,11.2036504 C0.949295936,8.49330034 2.38383767,5.20425021 5.8630862,5.20425021 C8.09088758,5.20425021 9.80007123,7.24455029 12.3940619,7.24455029 C13.4317482,7.24455029 14.7134106,6.75720027 15.2320283,5.63040022 L15.3235756,5.63040022 C15.2933604,7.6104003 14.6831954,9.65070038 11.9669914,10.2294004 Z M13.6148429,21.7710009 C12.0887539,23.3847009 10.4409024,24.755401 8.30464828,24.755401 C4.33744812,24.755401 1.285721,21.6490509 1.285721,17.1418507 C1.285721,14.4927006 2.38428864,13.0617005 3.60506969,11.3863505 L3.48285629,11.3863505 C2.71981177,12.1477505 0.705771087,14.0661006 0.705771087,17.3245507 C0.705771087,22.3191009 3.84904551,25.394851 7.96912515,25.394851 C10.8377577,25.394851 12.7909171,23.4157509 13.6761751,21.8016009 L13.6148429,21.7710009 Z M14.8351729,7.00155028 C14.3165552,7.97580032 13.2179876,9.22410037 10.9901862,9.22410037 C8.7623848,9.22410037 6.71767802,7.70130031 4.91694707,7.70130031 C3.26864462,7.70130031 2.13986186,8.79795035 1.71234046,9.62010038 L1.74300655,9.68130038 C2.32295646,9.10260036 3.20776341,8.52390034 4.64230515,8.52390034 C7.02253505,8.52390034 8.5486241,9.9859504 10.9595201,9.9859504 C13.5232956,9.9859504 14.6827444,8.31060033 14.8965051,7.03215028 L14.8351729,7.00155028 Z M6.35103783,9.10260036 C4.79473367,10.7167504 3.36019193,12.4830005 3.36019193,15.9241506 C3.36019193,17.8119007 4.00102305,19.7608508 5.4355648,20.9790008 L6.32037174,20.5218008 L6.32037174,12.3610505 L5.49644601,12.7872005 L5.34401749,12.4825505 L9.61652567,10.1677504 C8.45707679,9.92475039 7.41939036,9.40725037 6.35103783,9.10260036 Z M11.6310174,10.2901504 C11.4172566,10.3203004 11.2039469,10.3203004 10.9595201,10.3203004 C10.5324497,10.3203004 10.1355944,10.2901504 9.73873902,10.1983504 L9.73873902,19.0903508 L5.7408728,21.2535008 C6.56479853,21.8623509 7.57181888,22.2277509 8.85348113,22.2277509 C9.89116752,22.2277509 10.8066406,22.0144509 11.6305664,21.6490509 L11.6305664,10.2901504 L11.6310174,10.2901504 Z M7.23629575,11.8435505 L6.65634583,12.1783505 L6.65634583,20.3400008 L7.23629575,20.0353508 L7.23629575,11.8435505 Z M24.7845159,13.0005005 L24.7845159,23.5372509 C24.7845159,26.4604511 22.1905253,28.4404511 19.2912267,29.0187012 L19.2303455,28.8967511 C20.6648872,28.1961011 21.488813,26.7651011 21.488813,25.242301 L21.488813,14.3401506 L19.8409615,12.8484005 L19.2001303,13.5486005 L19.2001303,22.0450509 L20.1156033,22.8672009 L20.1156033,22.9284009 L17.6438262,25.608151 L14.8058597,23.0197509 L14.8058597,22.8978009 L15.9044274,21.7404009 L15.9044274,8.28045033 L19.1392491,4.83975019 L19.2001303,4.86990019 L19.2001303,13.0311005 L21.8554532,10.1686504 L24.6325384,12.6661505 L25.1511561,12.1176005 L25.3955829,12.3313505 L24.7845159,13.0005005 Z M16.2394996,22.9585509 L16.2394996,22.8978009 L16.8803307,22.2579009 L16.8803307,7.76250031 L16.2394996,8.43300034 L16.2394996,21.9537009 L15.2626943,22.9284009 L15.2626943,22.9891509 L17.6429243,25.120801 L18.0699947,24.633451 L16.2394996,22.9585509 Z M22.4651672,13.8528006 L20.4813417,12.1477505 L20.0542712,12.6045005 L21.824336,14.1885006 L21.824336,25.151401 C21.824336,25.882201 21.6719075,26.6431511 21.3972657,27.0697511 L21.4279317,27.1003511 C22.1909763,26.5518011 22.4656182,25.729651 22.4656182,24.664051 L22.4656182,13.8528006 L22.4651672,13.8528006 Z M29.636974,19.1214008 L29.636974,20.6743508 L32.5971538,22.9887009 L34.3063374,21.1617008 L34.5507642,21.4051509 L30.5835641,25.637851 L26.5550317,22.4100009 L25.9448667,23.0494509 L25.7004399,22.8060009 L26.4026032,22.0752009 L26.4026032,14.3707506 L32.1705343,10.1682004 L35.1920463,15.0408006 L29.636974,19.1214008 Z M27.3785065,21.8016009 L27.3785065,14.0661006 L26.7376754,14.5233006 L26.7376754,22.1062509 L30.5222319,25.182001 L31.0106345,24.664501 L27.3785065,21.8016009 Z M29.6983061,12.4218005 L29.636974,12.4524005 L29.636974,18.6952507 L32.353178,16.7157007 L29.6983061,12.4218005 Z M30.4915658,11.8129505 L29.942282,12.2085005 L32.6282708,16.5024007 L33.1775547,16.1064006 L30.4915658,11.8129505 Z" id="Shape"></path>
                <path d="M55.0848696,25.607701 L50.8425766,21.9532509 L47.6077548,25.607701 L43.2130333,21.8313009 L43.2130333,15.8629506 L42.3584414,15.8629506 C41.5953969,15.8629506 41.1989926,16.3503006 41.015447,16.9285507 L40.9238996,16.9285507 C40.8630185,16.6851007 40.7714711,16.2589506 40.7714711,15.7716006 C40.7714711,14.9796006 40.9852319,12.9091505 43.2130333,12.9091505 L43.2130333,7.6711503 C43.2130333,6.66630026 42.0229183,6.27030025 42.0229183,4.9302002 C42.0229183,3.19500013 43.6707698,1.48950006 46.6922818,0.423000017 L46.8144952,0.51435002 C45.7159275,1.15425005 45.1359776,1.76310007 45.1359776,3.07260012 C45.1359776,5.0827502 47.089137,4.56480018 47.089137,7.73190031 L47.089137,8.95005036 L50.6599329,5.20425021 L54.4138233,8.88885035 L57.953953,5.20425021 L61.3718694,8.55405034 L61.3718694,19.8216008 L55.0848696,25.607701 Z M44.1898385,21.3444008 L44.1898385,14.9193006 L42.4806548,14.9193006 C41.5953969,14.9193006 41.1989926,15.4975506 41.1376604,16.0155006 L41.1678755,16.0461006 C41.4731835,15.7113006 41.7784915,15.5286006 42.4802038,15.5286006 L43.5481054,15.5286006 L43.5481054,21.6801009 L47.5766377,25.151851 L48.0343742,24.603301 L44.1898385,21.3444008 Z M44.1898385,7.36650029 C44.1898385,6.11820024 43.0912708,5.69160023 43.0912708,4.90005019 C43.0912708,3.80340015 43.5183413,2.89035011 44.1898385,2.03760008 L44.1289573,2.00745008 C43.2134843,2.70810011 42.3588924,3.83490015 42.3588924,4.9306502 C42.3588924,6.02730024 43.5490073,6.54480026 43.5490073,7.5195003 L43.5490073,12.9096005 L44.1898385,12.9096005 L44.1898385,7.36650029 Z M50.6292668,10.4121004 L48.3099181,8.15850032 L47.089137,9.40680037 L47.089137,20.1870008 L49.8662222,22.5319509 L50.6292668,21.6792009 L50.6292668,10.4121004 Z M51.6056211,21.2836508 L51.6056211,9.9859504 L49.0116304,7.4277003 L48.5232279,7.91505031 L50.9647899,10.2595504 L50.9647899,21.6184509 L55.0848696,25.181551 L55.5732722,24.724351 L51.6056211,21.2836508 Z M57.5264317,10.0161004 L55.6039383,8.18865033 L54.5053706,9.31545037 L54.5053706,20.1568508 L57.4962165,22.7754009 L57.5264317,22.7452509 L57.5264317,10.0161004 Z M58.5027859,9.58995038 L56.2749845,7.4277003 L55.817248,7.91505031 L57.8619548,9.86400039 L57.8619548,22.5931509 L58.5027859,21.9838509 L58.5027859,9.58995038 Z" id="Shape"></path>
                <path d="M71.4704841,25.607701 L68.5711854,22.9887009 L65.9771949,25.607701 L62.8032543,22.8060009 L62.375733,23.2627509 L62.1317571,23.0193009 L62.681041,22.4406009 L62.681041,14.2798506 L68.4187569,10.1380504 L71.7149108,12.6963005 L72.2948608,12.0870005 L72.5392876,12.3309005 L71.8677903,13.0311005 L71.8677903,21.4668009 L73.4849757,22.9585509 L74.0040444,22.4104509 L74.2480203,22.6237509 L71.4704841,25.607701 Z M63.6578462,22.2277509 L63.6578462,14.0053506 L63.017015,14.4621006 L63.017015,22.5324009 L65.9469797,25.151401 L66.4353824,24.664051 L63.6578462,22.2277509 Z M68.5711854,14.2186506 L66.0687422,12.2697005 L65.9771949,12.3309005 L65.9771949,21.1923008 L68.0525677,22.9887009 L68.5711854,22.4712009 L68.5711854,14.2186506 Z M69.5479907,22.5018009 L69.5479907,13.7619005 L66.9540001,11.6604005 L66.343835,12.0865505 L68.9071596,14.0967006 L68.9071596,22.8060009 L71.470935,25.120351 L71.9286716,24.633001 L69.5479907,22.5018009 Z M80.3514744,15.6802506 L83.4947489,15.6802506 L83.4947489,22.1971509 L78.6422909,25.607701 C78.0014597,24.876901 77.0855357,24.359401 75.9567529,24.359401 C75.0412798,24.359401 74.3084505,24.664051 73.3320962,25.486201 L73.1796677,25.425001 L77.3304135,19.3954508 L74.766638,19.3954508 L74.766638,13.7313005 L79.8635229,10.1988004 C80.4736879,10.6861504 80.9314244,10.9597504 81.725135,10.9597504 C82.335751,10.9597504 83.2205579,10.8378004 83.8920551,10.2901504 L84.0142686,10.3509004 L80.3514744,15.6802506 Z M76.9335582,23.4760509 C76.0483002,23.4760509 75.3465878,23.7807009 74.7359718,24.206851 L74.7359718,24.268051 C75.2243745,24.054751 75.7127771,23.994001 76.1705136,23.994001 C76.872226,23.994001 77.9712445,24.329251 78.703623,25.182001 L79.4057863,24.664501 C78.8253854,23.994001 78.1236731,23.4760509 76.9335582,23.4760509 Z M80.1985949,18.3600007 L78.4894114,18.3600007 L74.9186155,23.5071009 L74.9492816,23.5678509 C75.8340885,22.9284009 76.6886804,22.5022509 77.7263668,22.5022509 C78.6418399,22.5022509 79.5879789,22.9284009 80.1679289,23.6592009 L80.1985949,23.6290509 L80.1985949,18.3600007 Z M75.7429922,18.3600007 L75.7429922,13.4577005 L75.1021611,13.9144506 L75.1021611,19.0305008 L77.5739383,19.0305008 L78.0623409,18.3604507 L75.7429922,18.3604507 L75.7429922,18.3600007 Z M82.1215393,12.3912005 C81.4807082,12.8484005 81.114519,13.0918505 80.0461664,13.0918505 C79.4355504,13.0918505 78.703172,12.8178005 78.1236731,12.2085005 L78.0627919,12.2391005 L78.0627919,16.6851007 L79.2222407,16.6851007 L82.1522054,12.4213505 L82.1215393,12.3912005 Z M80.6567824,12.1171505 C80.1074987,12.1171505 79.4057863,11.8435505 78.9475989,11.2342504 L78.1845543,11.7517505 C78.7645042,12.4524005 79.313788,12.7566005 80.1679289,12.7566005 C80.7172127,12.7566005 81.5109233,12.6040505 82.3348491,11.9034005 L82.3650641,11.8125005 C81.8468974,12.0262505 81.2060663,12.1171505 80.6567824,12.1171505 Z M81.1754002,17.3556007 L79.1915746,17.3556007 L78.7338381,17.9950507 L80.5345691,17.9950507 L80.5345691,23.9026509 L81.1754002,23.4459009 L81.1754002,17.3556007 Z M94.0235905,13.0005005 L94.0235905,23.5372509 C94.0235905,26.4604511 91.4296005,28.4404511 88.5303015,29.0187012 L88.4694204,28.8967511 C89.9039621,28.1961011 90.7278876,26.7651011 90.7278876,25.242301 L90.7278876,14.3401506 L89.0800364,12.8484005 L88.4392052,13.5486005 L88.4392052,22.0450509 L89.3546783,22.8672009 L89.3546783,22.9284009 L86.8829011,25.608151 L84.0449346,23.0197509 L84.0449346,22.8978009 L85.1435023,21.7404009 L85.1435023,8.28045033 L88.378324,4.83975019 L88.4392052,4.86990019 L88.4392052,13.0311005 L91.0945278,10.1686504 L93.8716129,12.6661505 L94.3902308,12.1176005 L94.6346582,12.3313505 L94.0235905,13.0005005 Z M85.4785745,22.9585509 L85.4785745,22.8978009 L86.1194056,22.2579009 L86.1194056,7.76250031 L85.4785745,8.43255034 L85.4785745,21.9532509 L84.5017693,22.9279509 L84.5017693,22.9887009 L86.8819992,25.120351 L87.3090695,24.633001 L85.4785745,22.9585509 Z M91.7042418,13.8528006 L89.7204165,12.1477505 L89.2933461,12.6045005 L91.0634112,14.1885006 L91.0634112,25.151401 C91.0634112,25.882201 90.9109827,26.6431511 90.6363405,27.0697511 L90.6670062,27.1003511 C91.4300514,26.5518011 91.7046927,25.729651 91.7046927,24.664051 L91.7046927,13.8528006 L91.7042418,13.8528006 Z M99.5782126,25.607701 L96.9535551,23.2020009 L96.3429392,23.8414509 L96.0985127,23.5975509 L96.8006756,22.8366009 L96.8006756,14.0359506 L95.5190135,12.8178005 L95.0306114,13.3663505 L94.786184,13.1224505 L97.5326034,10.1380504 L99.9741658,12.3309005 L100.584782,11.6608505 L100.859424,11.8741505 L100.096379,12.6963005 L100.096379,21.5887509 L101.561587,22.9590009 L102.233084,22.2583509 L102.47706,22.5022509 L99.5782126,25.607701 Z M97.7774808,22.6237509 L97.7774808,13.5486005 L96.1905107,12.0870005 L95.7634409,12.5743505 L97.1366502,13.8838506 L97.1366502,22.9284009 L99.5782126,25.120801 L100.035949,24.633451 L97.7774808,22.6237509 Z M98.6929545,9.89460039 L96.1905107,7.6108503 L98.4796446,5.17455021 L100.982088,7.4583003 L98.6929545,9.89460039 Z M97.1366502,7.12305028 L96.6789137,7.5798003 L98.6622879,9.43740038 L99.1200243,8.91990035 L97.1366502,7.12305028 Z" id="Shape"></path>
                <path d="M112.482774,25.607701 L109.827452,23.2020009 L109.827452,14.3100006 L108.209815,12.8484005 L107.355224,13.7619005 L107.355224,21.9838509 L108.301362,22.8667509 L108.301362,22.9887009 L105.798919,25.607701 L102.960502,23.0193009 L102.960502,22.9279509 L104.059521,21.7710009 L104.059521,14.0967006 L102.624978,12.7872005 L102.045029,13.4266505 L101.801052,13.1832005 L104.578138,10.1682004 L107.355224,12.6351005 L107.355224,13.2439505 L110.254521,10.1682004 L112.970275,12.6045005 L113.580891,11.9650505 L113.855533,12.2085005 L113.123155,12.9699005 L113.123155,21.6792009 L114.496364,22.9581009 L115.167861,22.2273009 L115.411837,22.4707509 L112.482774,25.607701 Z M104.42571,22.9585509 L104.42571,22.8978009 C104.42571,22.9585509 105.036326,22.2885009 105.036326,22.2885009 L105.036326,13.6395005 L103.296475,12.0559505 L102.868955,12.5127005 L104.395043,13.9135506 L104.395043,21.9528009 L103.448904,22.9275009 L103.448904,22.9882509 L105.798919,25.119901 L106.28687,24.602401 L104.42571,22.9585509 Z M110.803806,22.7151009 L110.803806,13.7925005 L108.911979,12.0870005 L108.423576,12.6045005 L110.162974,14.1574506 L110.162974,23.0193009 L112.451657,25.150951 L112.940059,24.633001 L110.803806,22.7151009 Z M121.088672,31.0891512 C120.082102,29.9929512 119.379939,29.5362012 118.4338,29.5362012 C117.426779,29.5362012 116.26688,29.9322012 115.076765,30.5716512 L114.985218,30.4807512 L119.196844,25.608151 L116.205999,23.2330509 L115.626048,23.8423509 L115.382073,23.6290509 L116.053119,22.8982509 L116.053119,14.2798506 L121.851716,10.1380504 L125.086538,12.6963005 L125.636273,12.0870005 L125.880248,12.3309005 L125.239418,13.0311005 L125.239418,23.4463509 C125.239418,25.029901 126.124225,24.969151 126.124225,26.156251 C126.124225,27.5265011 124.140399,28.8054011 121.088672,31.0891512 Z M117.029924,22.6539009 L117.029924,14.0359506 L116.389094,14.4931506 L116.389094,22.9284009 L119.410154,25.364701 L119.868342,24.816151 L117.029924,22.6539009 Z M119.166179,28.7446511 C118.159158,28.7446511 117.243234,29.0493012 116.389094,29.6275512 L116.389094,29.6887512 C116.938377,29.4754512 117.548542,29.2014012 118.586229,29.2014012 C119.532368,29.2014012 120.325627,29.7189012 121.119338,30.6328512 L121.729954,30.1455012 C120.966459,29.2626012 120.050985,28.7446511 119.166179,28.7446511 Z M122.889402,25.821001 C122.126809,25.333651 121.943264,24.816151 121.943264,23.5066509 L121.943264,22.9581009 L116.877045,28.8049511 L116.907711,28.8351011 C117.884065,28.2568511 118.769323,27.8307011 120.203864,27.8307011 C121.424646,27.8307011 122.248572,28.3176011 123.19471,29.1096012 C123.77466,28.6222511 124.171065,28.1353511 124.171065,27.3739511 C124.171065,26.7651011 123.651997,26.308351 122.889402,25.821001 Z M121.943264,14.2186506 L119.410154,12.2395505 L119.348822,12.3003005 L119.348822,21.6490509 L121.302432,23.1718509 L121.943264,22.4410509 L121.943264,14.2186506 L121.943264,14.2186506 Z M123.804876,25.394851 C123.011165,24.785551 122.919618,24.268051 122.919618,22.9585509 L122.919618,13.7011505 L120.355842,11.6302505 L119.776344,12.0262505 L122.278787,14.0053506 L122.278787,23.3847009 C122.278787,24.694201 122.340119,25.060051 123.164045,25.607701 C123.896423,26.095051 124.475922,26.6125511 124.475922,27.3132011 C124.475922,27.4954511 124.445707,27.8001011 124.445707,27.8001011 L124.475922,27.8307011 C124.628802,27.6781511 124.811897,27.4347011 124.811897,27.0387011 C124.812347,26.369101 124.476373,25.912351 123.804876,25.394851 Z M131.129562,25.607701 L128.321811,23.4153009 L127.741861,24.054751 L127.497885,23.8108509 L128.168931,23.0800509 L128.168931,12.4218005 L126.398866,12.4218005 L126.337534,12.3610505 L127.405887,10.7770504 L128.16848,10.7770504 L128.16848,8.73720035 L131.403753,5.29605021 L131.464634,5.35725021 L131.464634,10.7775004 L133.906197,10.7775004 L133.967528,10.8387004 L132.899176,12.4222505 L131.464634,12.4222505 L131.464634,21.6495009 L133.143602,22.9288509 L133.784434,22.2282009 L134.028409,22.4716509 L131.129562,25.607701 Z M129.145736,8.21925033 L128.504905,8.91990035 L128.504905,10.7775004 L129.145736,10.7775004 L129.145736,8.21925033 Z M129.145736,22.7758509 L129.145736,12.4218005 L128.504905,12.4218005 L128.504905,23.1412509 L131.098896,25.151401 L131.556632,24.664051 L129.145736,22.7758509 Z M144.007968,13.3051505 L144.007968,21.8317509 L138.850202,25.638301 L134.974098,22.7151009 L134.516362,23.2326009 L134.272385,22.9887009 L134.821669,22.3798509 L134.821669,14.0359506 L140.223862,10.1682004 L143.824873,12.9703505 L144.404372,12.3610505 L144.648799,12.6045005 L144.007968,13.3051505 Z M135.798925,22.0756509 L135.798925,13.7619005 L135.157643,14.2186506 L135.157643,22.4104509 L138.819986,25.212151 L139.399936,24.786001 L135.798925,22.0756509 Z M140.712265,14.3100006 L138.148489,12.2998505 L138.118274,12.3304505 L138.118274,21.4051509 L140.712265,23.3541009 L140.712265,14.3100006 Z M141.68907,13.7619005 L138.850653,11.5690505 L138.271154,11.9952005 L141.048239,14.1268506 L141.048239,23.5980009 L141.68907,23.1111009 L141.68907,13.7619005 Z M155.666495,25.607701 L153.011171,23.2020009 L153.011171,14.3100006 L151.393535,12.8484005 L150.538943,13.7619005 L150.538943,21.9838509 L151.485083,22.8667509 L151.485083,22.9887009 L148.982639,25.607701 L146.144222,23.0193009 L146.144222,22.9279509 L147.24324,21.7710009 L147.24324,14.0967006 L145.808699,12.7872005 L145.228749,13.4266505 L144.984773,13.1832005 L147.761858,10.1682004 L150.538943,12.6351005 L150.538943,13.2439505 L153.438242,10.1682004 L156.154446,12.6045005 L156.764611,11.9650505 L157.039253,12.2085005 L156.306874,12.9699005 L156.306874,21.6792009 L157.680084,22.9581009 L158.351581,22.2273009 L158.595557,22.4707509 L155.666495,25.607701 Z M147.608979,22.9585509 L147.608979,22.8978009 C147.608979,22.9585509 148.219595,22.2885009 148.219595,22.2885009 L148.219595,13.6395005 L146.480196,12.0559505 L146.053125,12.5127005 L147.579214,13.9135506 L147.579214,21.9528009 L146.633076,22.9275009 L146.633076,22.9882509 L148.98309,25.119901 L149.471493,24.602401 L147.608979,22.9585509 Z M153.987526,22.7151009 L153.987526,13.7925005 L152.095699,12.0870005 L151.607296,12.6045005 L153.346695,14.1574506 L153.346695,23.0193009 L155.635377,25.150951 L156.12378,24.633001 L153.987526,22.7151009 Z" id="Shape"></path>
                <path d="M174.519827,25.607701 C173.665235,24.694201 173.360378,24.389551 172.352907,24.115501 L172.352907,24.785551 L172.352907,30.0843012 L172.291575,30.1144512 L171.070794,29.0178012 L167.530664,32.2762513 L167.469332,32.2461013 L167.469332,24.054751 C166.401431,24.298201 165.272197,24.846751 164.173178,25.942501 L164.112297,25.912351 C164.326057,23.5674009 165.485507,21.8317509 167.468881,21.1617008 L167.468881,15.2235006 L166.828049,15.2235006 C165.943243,15.2235006 165.45484,15.6802506 165.027769,16.5024007 L164.936222,16.5024007 C164.844675,16.2288006 164.783343,15.8017506 164.783343,15.1020006 C164.783343,13.8226505 165.729482,12.4830005 167.286238,12.4830005 L167.468881,12.4830005 L167.468881,9.19395037 L166.217885,8.06715032 L165.607269,8.67645034 L165.393508,8.46315034 L168.475901,5.20470021 L171.344534,7.82370031 L171.344534,10.5948004 L172.016031,9.86400039 L172.016031,6.36165025 L172.351554,6.36165025 L172.351554,9.55935038 L176.410301,5.20425021 L179.858884,8.34120033 L179.858884,21.5883009 L174.519827,25.607701 Z M167.470234,22.9279509 C166.219238,23.1714009 165.334431,23.932801 164.754481,24.937651 L164.784696,24.998851 C165.639739,24.268051 166.432547,23.933251 167.470234,23.6893509 L167.470234,22.9279509 Z M168.447039,14.1885006 L166.768522,14.1885006 C165.608621,14.1885006 165.150885,14.9193006 165.12067,15.7720506 L165.150885,15.8022006 C165.517074,15.1929006 165.883264,14.9800506 166.615642,14.8891506 L167.806208,14.8891506 L167.806208,31.4856013 L168.447039,30.8763012 L168.447039,14.1885006 Z M168.447039,8.70660035 L166.92095,7.30620029 L166.432547,7.82370031 L167.806208,9.04140036 L167.806208,12.4825505 L168.447039,12.4825505 L168.447039,8.70660035 L168.447039,8.70660035 Z M172.017835,10.4422504 L171.346338,11.1429004 L171.346338,28.7752511 L172.017835,29.3845512 L172.017835,10.4422504 Z M176.015702,9.74205039 L174.21497,8.09775032 L172.353358,10.1079004 L172.353358,20.8269008 C173.940329,20.9794508 175.038896,21.4362009 175.985035,22.4712009 L176.015702,22.4410509 L176.015702,9.74205039 Z M172.353358,22.9279509 L172.353358,23.7199509 C173.391044,23.963401 173.818115,24.268051 174.550493,25.120351 L175.252656,24.572251 C174.519827,23.6587509 173.787449,23.1111009 172.353358,22.9279509 Z M176.992056,9.25515037 L174.916683,7.33635029 L174.42828,7.85385031 L176.351224,9.62010038 L176.351224,23.7807009 L176.992056,23.2933509 L176.992056,9.25515037 Z M190.511743,13.3051505 L190.511743,21.8317509 L185.353526,25.638301 L181.477873,22.7151009 L181.019686,23.2326009 L180.77571,22.9887009 L181.324994,22.3798509 L181.324994,14.0359506 L186.727187,10.1682004 L190.328198,12.9703505 L190.907696,12.3610505 L191.152124,12.6045005 L190.511743,13.3051505 Z M182.30225,22.0756509 L182.30225,13.7619005 L181.660968,14.2186506 L181.660968,22.4104509 L185.323311,25.212151 L185.903261,24.786001 L182.30225,22.0756509 Z M187.215589,14.3100006 L184.652265,12.2998505 L184.621599,12.3304505 L184.621599,21.4051509 L187.215589,23.3541009 L187.215589,14.3100006 Z M188.192394,13.7619005 L185.353977,11.5690505 L184.774479,11.9952005 L187.551564,14.1268506 L187.551564,23.5980009 L188.192394,23.1111009 L188.192394,13.7619005 Z M197.591552,15.6802506 L200.735277,15.6802506 L200.735277,22.1971509 L195.882819,25.607701 C195.241987,24.876901 194.326515,24.359401 193.197281,24.359401 C192.281808,24.359401 191.54943,24.664051 190.572624,25.486201 L190.420196,25.425001 L194.57049,19.3954508 L192.006715,19.3954508 L192.006715,13.7313005 L197.1036,10.1988004 C197.714216,10.6861504 198.171502,10.9597504 198.965212,10.9597504 C199.575828,10.9597504 200.460184,10.8378004 201.132132,10.2901504 L201.254346,10.3509004 L197.591552,15.6802506 Z M194.173635,23.4760509 C193.288828,23.4760509 192.586665,23.7807009 191.9765,24.206851 L191.9765,24.268051 C192.464902,24.054751 192.952854,23.994001 193.411042,23.994001 C194.113205,23.994001 195.211322,24.329251 195.9437,25.182001 L196.645863,24.664501 C196.066365,23.994001 195.364201,23.4760509 194.173635,23.4760509 Z M197.439574,18.3600007 L195.73039,18.3600007 L192.160045,23.5071009 L192.190261,23.5678509 C193.075067,22.9284009 193.92966,22.5022509 194.967346,22.5022509 C195.882819,22.5022509 196.828958,22.9284009 197.408908,23.6592009 L197.439123,23.6290509 L197.439123,18.3600007 L197.439574,18.3600007 Z M192.983971,18.3600007 L192.983971,13.4577005 L192.34269,13.9144506 L192.34269,19.0305008 L194.814467,19.0305008 L195.302869,18.3604507 L192.983971,18.3604507 L192.983971,18.3600007 Z M199.362068,12.3912005 C198.720785,12.8484005 198.355047,13.0918505 197.286244,13.0918505 C196.675628,13.0918505 195.943249,12.8178005 195.36375,12.2085005 L195.302418,12.2391005 L195.302418,16.6851007 L196.461867,16.6851007 L199.391832,12.4213505 L199.362068,12.3912005 Z M197.89686,12.1171505 C197.347576,12.1171505 196.645863,11.8435505 196.188127,11.2342504 L195.425083,11.7517505 C196.005033,12.4524005 196.554316,12.7566005 197.408908,12.7566005 C197.958192,12.7566005 198.751902,12.6040505 199.575828,11.9034005 L199.606044,11.8125005 C199.087426,12.0262505 198.446594,12.1171505 197.89686,12.1171505 Z M198.415928,17.3556007 L196.432553,17.3556007 L195.974817,17.9950507 L197.775097,17.9950507 L197.775097,23.9026509 L198.415928,23.4459009 L198.415928,17.3556007 Z M205.801496,25.607701 L202.993744,23.4153009 L202.413794,24.054751 L202.169819,23.8108509 L202.840865,23.0800509 L202.840865,12.4218005 L201.0708,12.4218005 L201.009919,12.3610505 L202.077821,10.7770504 L202.840414,10.7770504 L202.840414,8.73720035 L206.075687,5.29605021 L206.137019,5.35725021 L206.137019,10.7775004 L208.57813,10.7775004 L208.639463,10.8387004 L207.57111,12.4222505 L206.137019,12.4222505 L206.137019,21.6495009 L207.815537,22.9288509 L208.456368,22.2282009 L208.700343,22.4716509 L205.801496,25.607701 Z M203.81767,8.21925033 L203.17684,8.91990035 L203.17684,10.7775004 L203.81767,10.7775004 L203.81767,8.21925033 Z M203.81767,22.7758509 L203.81767,12.4218005 L203.17684,12.4218005 L203.17684,23.1412509 L205.77083,25.151401 L206.228566,24.664051 L203.81767,22.7758509 Z" id="Shape"></path>
            </g>
        </g>
    </g>
</svg>