<?xml version="1.0" encoding="UTF-8"?>
<svg width="120px" height="60px" viewBox="0 0 255 130" version="1.1" xmlns="http://www.w3.org/2000/svg" xmlns:xlink="http://www.w3.org/1999/xlink">
    <!-- Generator: Sketch 57.1 (83088) - https://sketch.com -->
    <title>jump</title>
    <desc>Created with Sketch.</desc>
    <g id="customers.mapbox.com-copy" stroke="none" stroke-width="1" fill="none" fill-rule="evenodd">
        <g id="jump" fill-rule="nonzero">
            <rect id="Rectangle-Copy-39" fill="#373737" x="0" y="0" width="255" height="130"></rect>
            <g id="5d4ac7b0935075c009b3fb5f_logo-jump-svg" transform="translate(68.000000, 26.000000)" fill="#FFFFFF">
                <path d="M13.0877037,36.280235 C13.1056422,36.8317289 12.8886658,37.3649663 12.4906292,37.7475947 C12.0925925,38.1302231 11.5508133,38.3263694 10.9997641,38.287349 C10.4487149,38.3263694 9.9069357,38.1302231 9.508899,37.7475947 C9.1108624,37.3649663 8.893886,36.8317289 8.9118245,36.280235 L8.9118245,23.5736357 C8.9122334,23.4282656 8.8547039,23.2887096 8.7519352,23.1857729 C8.6491664,23.0828363 8.5096086,23.024983 8.3640674,23.0249836 L0.5492958,23.0249836 C0.2459281,23.0249836 0,23.2706235 0,23.5736357 L0,35.932909 C0,42.1156193 4.9421237,46.383426 11.207481,46.383426 C14.0586334,46.546037 16.8476633,45.508567 18.89777,43.522773 C20.9478767,41.5369782 22.0716724,38.7843695 21.9964509,35.932909 L21.9964509,0.5425403 C21.9939167,0.2421789 21.7494182,3.34e-05 21.4486937,3.34e-05 L13.6354608,3.34e-05 C13.4899202,3.34e-05 13.3502004,0.0570892 13.247143,0.1597375 C13.1440856,0.2623858 13.0861644,0.4017802 13.086165,0.5471508 L13.086165,36.280235 L13.0877037,36.280235 Z M40.293184,36.295578 C40.306124,36.8577245 40.078108,37.3986307 39.666509,37.7821902 C39.25491,38.1657498 38.698917,38.3554433 38.1384334,38.303539 C37.5973333,38.3281155 37.0707332,38.124786 36.6868456,37.7430557 C36.3029579,37.3613253 36.0970029,36.8362162 36.1191248,36.295578 L36.1191248,0.5428019 C36.1179071,0.397366 36.0587952,0.2583942 35.954839,0.1565665 C35.8508827,0.0547387 35.710631,-0.0015711 35.5650462,2.77973342e-08 L27.7494597,2.77973342e-08 C27.6038752,2.77973342e-08 27.4641133,0.0571459 27.3610248,0.1598376 C27.2579364,0.2625292 27.1999984,0.4019824 27.1999984,0.5474144 L27.1999984,36.0895544 C27.2448237,38.9154358 28.4306889,41.6033521 30.4883655,43.543062 C32.5460421,45.482772 35.3009576,46.509711 38.1276597,46.390733 C44.464164,46.390733 49.1999984,41.8766641 49.1999984,36.0895544 L49.1999984,0.5428019 C49.197488,0.2441028 48.955706,0.0025749 48.656692,2.77973342e-08 L40.841106,2.77973342e-08 C40.695521,2.77973342e-08 40.555759,0.0571459 40.452671,0.1598376 C40.349582,0.2625292 40.291644,0.4019824 40.291644,0.5474144 L40.291644,36.295578 L40.293184,36.295578 Z M104.823684,0.0046375 L92.149187,0.0046375 C91.846476,0.0046363 91.600842,0.2490024 91.599995,0.5509959 L91.599995,45.452138 C91.599995,45.754731 91.845876,46.0000334 92.149187,46.0000334 L99.960948,46.0000334 C100.264258,46.0000334 100.51014,45.754731 100.51014,45.452138 L100.51014,34.9209268 C101.132164,35.0112691 101.759889,35.0569164 102.38847,35.0575164 L102.602301,35.0575164 L102.602301,35.0575164 C107.048144,35.0575164 113.599995,32.049476 113.599995,25.8875973 L113.599995,9.1868343 C113.599995,2.7640542 109.492588,3.34e-05 104.831376,3.34e-05 L104.823684,0.0046375 Z M104.399994,11.8734207 L104.399994,11.8734207 L104.399994,24.7875612 C104.358731,25.9112945 103.475578,26.8000318 102.400168,26.8000318 C101.324758,26.8000318 100.441604,25.9112945 100.400342,24.7875612 L100.400342,9.2119982 C100.390035,8.6499843 100.609335,8.1100283 101.003247,7.7275351 C101.397159,7.3450418 101.928322,7.1562894 102.463537,7.2086112 C102.98138,7.1840078 103.485359,7.3876047 103.852886,7.7698787 C104.220412,8.1521528 104.417804,8.6780693 104.397046,9.2197035 L104.397046,11.8749618 L104.399994,11.8734207 Z M75.43278,0.3684334 L70.198462,17.4981258 L64.964144,0.3684334 C64.894424,0.1484912 64.690042,-0.0006829 64.459428,1.44209045e-05 L54.547667,1.44209045e-05 C54.402557,1.44209045e-05 54.263251,0.0570353 54.160498,0.1595552 C54.057746,0.2620752 53.999997,0.4012952 53.999997,0.546484 L53.999997,45.452065 C53.999997,45.754698 54.245197,46.000033 54.547667,46.000033 L62.394542,46.000033 C62.697012,46.000033 62.942212,45.754698 62.942212,45.452065 L62.942212,20.5188458 C62.943183,20.4835525 62.968559,20.4536856 63.003217,20.4470454 C63.037875,20.4404052 63.072483,20.4587794 63.086417,20.4912172 L69.451359,36.1473877 C69.575429,36.4518652 69.871362,36.6509027 70.199996,36.6509027 C70.528629,36.6509027 70.824562,36.4518652 70.948632,36.1473877 L77.313575,20.4912172 C77.327508,20.4587794 77.362117,20.4404052 77.396775,20.4470454 C77.431433,20.4536856 77.456809,20.4835525 77.457779,20.5188458 L77.457779,45.452065 C77.457779,45.754698 77.70298,46.000033 78.00545,46.000033 L85.852324,46.000033 C86.154794,46.000033 86.399995,45.754698 86.399995,45.452065 L86.399995,0.5418793 C86.398779,0.3969551 86.340071,0.2584504 86.236787,0.1568371 C86.133502,0.0552239 85.994102,-0.0011735 85.849256,1.44209045e-05 L75.937495,1.44209045e-05 C75.706198,0.0006175 75.502223,0.1518147 75.434314,0.3730382 L75.43278,0.3684334 Z M113.050234,68.800029 L0.5497594,68.800029 C0.2461356,68.800029 0,69.042871 0,69.342433 L0,77.057625 C0,77.357187 0.2461356,77.600029 0.5497594,77.600029 L113.050234,77.600029 C113.353858,77.600029 113.599993,77.357187 113.599993,77.057625 L113.599993,69.342433 C113.599993,69.042871 113.353858,68.800029 113.050234,68.800029 L113.050234,68.800029 Z" id="logo-jump-svg"></path>
            </g>
        </g>
    </g>
</svg>