<?xml version="1.0" encoding="UTF-8"?>
<svg width="36px" height="36px" viewBox="0 0 36 36" version="1.1" xmlns="http://www.w3.org/2000/svg" xmlns:xlink="http://www.w3.org/1999/xlink">
    <!-- Generator: Sketch 53.1 (72631) - https://sketchapp.com -->
    <title>Group 7</title>
    <desc>Created with Sketch.</desc>
    <g id="customers.mapbox.com" stroke="none" stroke-width="1" fill="none" fill-rule="evenodd">
        <g id="Group-7" fill="#017AFC">
            <rect id="Rectangle" opacity="0.0481305804" x="0" y="0" width="36" height="36"></rect>
            <path d="M10.6871264,12.4207113 L15,11 L15,23.3529412 L11.3128736,24.567524 C10.7883164,24.7403193 10.2230005,24.45516 10.0502052,23.9306028 C10.0169478,23.8296428 10,23.7240259 10,23.6177292 L10,13.3705061 C10,12.9387747 10.2770702,12.5557886 10.6871264,12.4207113 Z M21,12.6470588 L21,25 L16,23.3529412 L16,11 L21,12.6470588 Z M26.3128736,23.5792887 L22,25 L22,12.6470588 L25.6871264,11.432476 C26.2116836,11.2596807 26.7769995,11.54484 26.9497948,12.0693972 C26.9830522,12.1703572 27,12.2759741 27,12.3822708 L27,22.6294939 C27,23.0612253 26.7229298,23.4442114 26.3128736,23.5792887 Z" id="Combined-Shape"></path>
        </g>
    </g>
</svg>