<?xml version="1.0" encoding="UTF-8"?>
<svg width="36px" height="36px" viewBox="0 0 36 36" version="1.1" xmlns="http://www.w3.org/2000/svg" xmlns:xlink="http://www.w3.org/1999/xlink">
    <!-- Generator: Sketch 53.1 (72631) - https://sketchapp.com -->
    <title>mobile-icn</title>
    <desc>Created with Sketch.</desc>
    <g id="customers.mapbox.com" stroke="none" stroke-width="1" fill="none" fill-rule="evenodd">
        <g id="mobile-icn" fill="#017AFC">
            <rect id="Rectangle-Copy-21" opacity="0.0481305804" x="0" y="0" width="36" height="36"></rect>
            <path d="M14,8 L22,8 C23.1045695,8 24,8.8954305 24,10 L24,26 C24,27.1045695 23.1045695,28 22,28 L14,28 C12.8954305,28 12,27.1045695 12,26 L12,10 C12,8.8954305 12.8954305,8 14,8 Z M15,10 C14.4477153,10 14,10.4477153 14,11 L14,23 C14,23.5522847 14.4477153,24 15,24 L21,24 C21.5522847,24 22,23.5522847 22,23 L22,11 C22,10.4477153 21.5522847,10 21,10 L15,10 Z M18,27 C18.5522847,27 19,26.5522847 19,26 C19,25.4477153 18.5522847,25 18,25 C17.4477153,25 17,25.4477153 17,26 C17,26.5522847 17.4477153,27 18,27 Z" id="Combined-Shape"></path>
        </g>
    </g>
</svg>