<?xml version="1.0" encoding="UTF-8"?>
<svg width="36px" height="36px" viewBox="0 0 36 36" version="1.1" xmlns="http://www.w3.org/2000/svg" xmlns:xlink="http://www.w3.org/1999/xlink">
    <!-- Generator: Sketch 53.1 (72631) - https://sketchapp.com -->
    <title>search-icn</title>
    <desc>Created with Sketch.</desc>
    <g id="customers.mapbox.com" stroke="none" stroke-width="1" fill="none" fill-rule="evenodd">
        <g id="search-icn" fill="#017AFC">
            <rect id="Rectangle-Copy-5" opacity="0.0481305804" x="0" y="0" width="36" height="36"></rect>
            <path d="M18.766899,27.0965793 C18.7289676,27.1419071 18.6870921,27.1837825 18.6417644,27.221714 C18.218228,27.5761406 17.5875643,27.520116 17.2331377,27.0965796 L17.2331162,27.0965975 C13.0777054,22.130921 11,18.4320552 11,16 C11,12.1340068 14.1340068,9 18,9 C21.8659932,9 25,12.1340068 25,16 C25,18.4320522 22.9222997,22.130912 18.766899,27.0965793 Z M18,18 C19.1045695,18 20,17.1045695 20,16 C20,14.8954305 19.1045695,14 18,14 C16.8954305,14 16,14.8954305 16,16 C16,17.1045695 16.8954305,18 18,18 Z" id="Combined-Shape"></path>
        </g>
    </g>
</svg>