<?xml version="1.0" encoding="UTF-8"?>
<svg width="36px" height="36px" viewBox="0 0 36 36" version="1.1" xmlns="http://www.w3.org/2000/svg" xmlns:xlink="http://www.w3.org/1999/xlink">
    <!-- Generator: Sketch 53.1 (72631) - https://sketchapp.com -->
    <title>studio-icn</title>
    <desc>Created with Sketch.</desc>
    <g id="customers.mapbox.com" stroke="none" stroke-width="1" fill="none" fill-rule="evenodd">
        <g id="studio-icn" fill="#017AFC">
            <rect id="Rectangle-Copy-16" opacity="0.0481305804" x="0" y="0" width="36" height="36"></rect>
            <path d="M18,28 C12.4771525,28 8,23.5228475 8,18 C8,12.4771525 12.4771525,8 18,8 C23.5228475,8 28,12.4771525 28,18 C27.1360296,21.9270801 21.3681482,21.3467817 18.8572559,20.8076574 C16.8162627,23.0618397 20.7383405,28 18,28 Z M17.5,14 C18.3284271,14 19,13.3284271 19,12.5 C19,11.6715729 18.3284271,11 17.5,11 C16.6715729,11 16,11.6715729 16,12.5 C16,13.3284271 16.6715729,14 17.5,14 Z M12.5,17 C13.3284271,17 14,16.3284271 14,15.5 C14,14.6715729 13.3284271,14 12.5,14 C11.6715729,14 11,14.6715729 11,15.5 C11,16.3284271 11.6715729,17 12.5,17 Z M22.5,16 C23.3284271,16 24,15.3284271 24,14.5 C24,13.6715729 23.3284271,13 22.5,13 C21.6715729,13 21,13.6715729 21,14.5 C21,15.3284271 21.6715729,16 22.5,16 Z" id="Combined-Shape"></path>
        </g>
    </g>
</svg>