<?xml version="1.0" encoding="UTF-8"?>
<svg width="120px" height="60px" viewBox="0 0 255 130" version="1.1" xmlns="http://www.w3.org/2000/svg" xmlns:xlink="http://www.w3.org/1999/xlink">
    <!-- Generator: Sketch 57.1 (83088) - https://sketch.com -->
    <title>adobe copy</title>
    <desc>Created with Sketch.</desc>
    <g id="customers.mapbox.com-copy" stroke="none" stroke-width="1" fill="none" fill-rule="evenodd">
        <g id="adobe-copy" fill-rule="nonzero">
            <rect id="Rectangle-Copy-49" fill="#F9FBFC" x="0" y="0" width="255" height="130"></rect>
            <g id="Adobe_logo_and_wordmark_(2017)" transform="translate(33.000000, 41.000000)" fill="#8A989E">
                <path d="M84.5562085,29.2254026 L81.9776082,36.3890033 C81.9776082,36.6768033 81.6908082,36.6768033 81.6908082,36.6768033 L77.6794078,36.6768033 C77.3926078,36.6768033 77.3926078,36.6768033 77.3926078,36.3890033 C79.684408,30.3726027 83.1232083,20.0572018 85.7018086,13.1794012 C85.7018086,12.8940012 85.9888086,12.3204011 85.9888086,10.887801 C85.9888086,10.6010009 85.9888086,10.6010009 86.2756086,10.6010009 L91.7194091,10.6010009 C92.0064091,10.3142009 92.0064091,10.6010009 92.0064091,10.6010009 C94.8702094,18.9102017 98.3094097,27.7930025 101.17461,36.1036032 C101.17461,36.3892033 101.17461,36.3892033 100.88921,36.3892033 L96.3030095,36.3892033 C96.0174095,36.3892033 96.0174095,36.3892033 96.0174095,36.1036032 L93.4376092,28.9404026 L84.5562085,28.9404026 L84.5562085,29.2254026 Z M92.5784092,25.2146023 C91.7194091,22.636002 89.7132089,17.1922015 89.1408089,14.3268013 C88.5674088,16.9054015 86.8478087,21.4900019 85.7020086,25.2146023 L92.5784092,25.2146023 Z M103.75461,26.9340024 C103.75461,21.2032019 108.052611,16.6184015 114.927611,16.6184015 C115.789411,16.6184015 116.648411,16.6184015 117.222211,16.9052015 L117.222211,8.30920074 C117.222211,8.02240072 117.222211,8.02240072 117.507611,8.02240072 L121.805612,8.02240072 C122.091012,8.02240072 122.091012,8.02240072 122.091012,8.30920074 L122.091012,34.3828031 C122.091012,34.6706031 122.091012,34.6706031 121.805612,34.6706031 C119.225812,35.8152032 116.360211,36.6768033 113.783211,36.6768033 C107.764411,36.9626033 103.75461,33.811803 103.75461,26.9340024 Z M116.933811,20.9164019 C116.360211,20.6296018 115.501211,20.6296018 114.642011,20.6296018 C110.917811,20.6296018 108.626011,22.922802 108.626011,26.9340024 C108.626011,31.5172028 111.203211,33.238203 114.356811,33.238203 C115.215811,33.238203 116.360211,32.9500029 117.222011,32.9500029 L117.222011,20.9164019 L116.933811,20.9164019 Z M146.160814,26.6486024 C146.160814,32.9502029 142.148214,36.9626033 136.417613,36.9626033 C129.542412,36.9626033 126.677212,31.8056028 126.677212,26.9340024 C126.677212,20.9164019 130.687013,16.9052015 136.705813,16.9052015 C142.722014,16.6184015 146.160814,21.2032019 146.160814,26.6486024 L146.160814,26.6486024 Z M131.548813,26.6486024 C131.548813,30.6584027 133.267013,33.238403 136.417813,33.238403 C138.997613,33.238403 141.004014,31.5174028 141.004014,26.6486024 C141.004014,22.922802 139.571413,20.0574018 136.132613,20.0574018 C133.552213,20.3428018 131.548813,22.636002 131.548813,26.6486024 L131.548813,26.6486024 Z M154.757015,8.30920074 C155.042615,8.30920074 155.042615,8.30920074 155.042615,8.59600077 L155.042615,17.7642016 C156.475015,17.1920015 157.907815,16.9052015 159.340415,16.9052015 C164.785816,16.9052015 168.224616,20.9164019 168.224616,26.0750023 C168.224616,32.9500029 162.779215,37.2480033 156.475015,37.2480033 C154.471415,37.2480033 152.465215,36.9624033 150.459014,36.3890033 C150.173614,36.3890033 150.173614,36.1034032 150.173614,36.1034032 L150.173614,8.59600077 C150.173614,8.30920074 150.173614,8.30920074 150.459014,8.30920074 L154.757015,8.30920074 Z M158.481415,20.6296018 C157.337015,20.6296018 156.189815,20.9164019 155.330615,21.2032019 L155.330615,32.9500029 C155.904215,33.238203 156.763215,33.238203 157.622215,33.238203 C160.487615,33.238203 163.926416,30.9464028 163.926416,26.3600024 C163.638416,22.636002 161.346815,20.6296018 158.481415,20.6296018 L158.481415,20.6296018 Z M177.394217,27.7930025 C177.394217,30.9466028 179.397817,32.9500029 183.410417,32.9500029 C184.842817,32.9500029 186.561218,32.6644029 188.281818,32.0910029 C188.281818,32.0910029 188.567418,32.0910029 188.567418,32.3792029 L188.567418,35.5300032 C188.567418,35.8152032 188.567418,35.8152032 188.281818,36.1034032 C186.849418,36.9624033 184.842817,37.2480033 182.263017,37.2480033 C175.099617,37.2480033 172.234016,32.3792029 172.234016,27.2190024 C172.234016,21.4898019 175.673017,16.9050015 181.692017,16.9050015 C187.708218,16.9050015 189.999618,21.4898019 189.999618,25.2142023 C189.999618,26.9338024 189.714418,27.7928025 189.714418,27.7928025 L177.394217,27.7928025 L177.394217,27.7930025 Z M183.695617,24.6408022 C185.128417,24.6408022 185.416617,24.3556022 185.416617,24.3556022 L185.416617,23.7818021 C185.416617,22.636002 184.557617,20.0574018 181.404017,20.0574018 C178.826817,20.0574018 177.394217,22.062202 177.106217,24.6408022 L183.695617,24.6408022 Z" id="Shape"></path>
                <path d="M34.097203,0 L54.1546048,47.8504043 L54.1546048,0 L34.097203,0 Z M0,0 L0,47.8504043 L20.0574018,0 L0,0 Z M18.3378016,38.1098034 L27.5076025,38.1098034 L31.5188028,47.8504043 L39.8280036,47.8504043 L26.9340024,17.4774016 L18.3378016,38.1098034 Z" id="Shape"></path>
            </g>
        </g>
    </g>
</svg>