<?xml version="1.0" encoding="UTF-8"?>
<svg width="36px" height="36px" viewBox="0 0 36 36" version="1.1" xmlns="http://www.w3.org/2000/svg" xmlns:xlink="http://www.w3.org/1999/xlink">
    <!-- Generator: Sketch 53.1 (72631) - https://sketchapp.com -->
    <title>web-icn</title>
    <desc>Created with Sketch.</desc>
    <g id="customers.mapbox.com" stroke="none" stroke-width="1" fill="none" fill-rule="evenodd">
        <g id="web-icn" fill="#017AFC">
            <rect id="Rectangle-Copy-6" opacity="0.0481305804" x="0" y="0" width="36" height="36"></rect>
            <path d="M7,22 L29,22 L29,24 C29,24.5522847 28.5522847,25 28,25 L8,25 C7.44771525,25 7,24.5522847 7,24 L7,22 Z M11,10 L25,10 C25.5522847,10 26,10.4477153 26,11 L26,21 L10,21 L10,11 C10,10.4477153 10.4477153,10 11,10 Z M12,12 L12,19 L24,19 L24,12 L12,12 Z" id="Combined-Shape"></path>
        </g>
    </g>
</svg>