<svg width="20" height="20" viewBox="0 0 24 24" fill="none" xmlns="http://www.w3.org/2000/svg">
<path d="M12 24C9.82813 24 7.82031 23.4648 5.97656 22.3945C4.13281 21.3242 2.67578 19.8672 1.60547 18.0234C0.535156 16.1797 0 14.1719 0 12C0 9.82813 0.535156 7.82031 1.60547 5.97656C2.67578 4.13281 4.13281 2.67578 5.97656 1.60547C7.82031 0.535156 9.82813 0 12 0C14.1719 0 16.1797 0.535156 18.0234 1.60547C19.8672 2.67578 21.3242 4.13281 22.3945 5.97656C23.4648 7.82031 24 9.82813 24 12C24 14.1719 23.4648 16.1797 22.3945 18.0234C21.3242 19.8672 19.8672 21.3242 18.0234 22.3945C16.1797 23.4648 14.1719 24 12 24ZM20.2734 15.5156C19.2266 15.1875 18.2109 15.0234 17.2266 15.0234C17.0703 15.0234 16.7812 15.0547 16.3594 15.1172C16.6563 16.5703 16.8125 18.0547 16.8281 19.5703C18.3906 18.5703 19.5391 17.2187 20.2734 15.5156ZM14.1562 20.7188C14.1875 19.125 14.0469 17.5156 13.7344 15.8906C13.2656 16.125 12.8359 16.3828 12.4453 16.6641C10.7578 17.8516 9.64844 19.1328 9.11719 20.5078C10.0547 20.8359 11.0156 21 12 21C12.7031 21 13.4219 20.9062 14.1562 20.7188ZM3.04688 11.2031C3.01562 11.5 3 11.7656 3 12C3 13.4531 3.32422 14.8086 3.97266 16.0664C4.62109 17.3242 5.50781 18.3672 6.63281 19.1953C7.42969 17.1484 8.70313 15.5078 10.4531 14.2734C11.2812 13.6953 12.1094 13.2266 12.9375 12.8672C12.6875 12.1641 12.4375 11.5234 12.1875 10.9453C10.6875 11.6641 9.125 12.0156 7.5 12C6.01563 11.9844 4.53125 11.7188 3.04688 11.2031ZM7.17188 4.42969C5.67188 5.38281 4.55469 6.66406 3.82031 8.27344C5.07031 8.75781 6.29688 9 7.5 9C8.60937 9 9.6875 8.75 10.7344 8.25C9.6875 6.60938 8.5 5.33594 7.17188 4.42969ZM12 3C11.2969 3 10.5625 3.10156 9.79688 3.30469C10.9531 4.21094 12.0156 5.38281 12.9844 6.82031C14.2031 5.86719 15.0469 4.83594 15.5156 3.72656C14.3906 3.24219 13.2188 3 12 3ZM17.9062 5.22656C17.1562 6.96094 16.0312 8.39844 14.5312 9.53906C14.9062 10.3516 15.25 11.2109 15.5625 12.1172C16.1406 12.0391 16.6953 12 17.2266 12C18.4297 12.0156 19.6719 12.2031 20.9531 12.5625C20.9844 12.2031 21 12.0156 21 12C21 10.6719 20.7266 9.42188 20.1797 8.25C19.6328 7.07812 18.875 6.07031 17.9062 5.22656Z" fill="#8E9CA1"/>
</svg>
